<svg width="1200" height="320" viewBox="0 0 1200 320" xmlns="http://www.w3.org/2000/svg"><defs><clipPath id="satori_bc-id"><path x="0" y="0" width="1200" height="320" d="M6,0 h1188 a6,6 0 0 1 6,6 v308 a6,6 0 0 1 -6,6 h-1188 a6,6 0 0 1 -6,-6 v-308 a6,6 0 0 1 6,-6"/></clipPath></defs><clipPath id="satori_cp-id"><path x="0" y="0" width="1200" height="320" d="M6,0 h1188 a6,6 0 0 1 6,6 v308 a6,6 0 0 1 -6,6 h-1188 a6,6 0 0 1 -6,-6 v-308 a6,6 0 0 1 6,-6"/></clipPath><mask id="satori_om-id"><rect x="1" y="1" width="1198" height="318" fill="#fff"/><path width="1200" height="320" fill="none" stroke="#000" stroke-width="2" d="M1.7569999999999997,1.7569999999999997 A6,6 0 0 1 6,0 h1188 a6,6 0 0 1 6,6 v308 a6,6 0 0 1 -6,6 h-1188 a6,6 0 0 1 -6,-6 v-308 A6,6 0 0 1 1.7569999999999997,1.7569999999999997"/></mask><path x="0" y="0" width="1200" height="320" fill="#070a0f" d="M6,0 h1188 a6,6 0 0 1 6,6 v308 a6,6 0 0 1 -6,6 h-1188 a6,6 0 0 1 -6,-6 v-308 a6,6 0 0 1 6,-6"/><style>
    @keyframes calendarSweep {
      0% { transform: translateX(137px); opacity: 0; }
      4% { opacity: 0.55; }
      88% { opacity: 0.45; }
      100% { transform: translateX(1063.6000000000001px); opacity: 0; }
    }
    @keyframes activeGlowPulse {
      0%, 100% { filter: drop-shadow(0 0 1px #00f0ff); opacity: 0.85; }
      50% { filter: drop-shadow(0 0 5px #00f0ff); opacity: 1; }
    }
    .sweep-bar {
      animation: calendarSweep 7.5s cubic-bezier(0.35, 0.05, 0.35, 0.95) infinite;
    }
    .node-high {
      animation: activeGlowPulse 2.4s ease-in-out infinite;
    }
  </style>
<g id="animated-activity-layer">
<defs>
    <linearGradient id="calSweepGrad" x1="0%" y1="0%" x2="100%" y2="0%">
      <stop offset="0%" stop-color="#00f0ff" stop-opacity="0"/>
      <stop offset="80%" stop-color="#00f0ff" stop-opacity="0.08"/>
      <stop offset="100%" stop-color="#00f0ff" stop-opacity="0.25"/>
    </linearGradient>
  </defs>
<line x1="137" y1="74" x2="1063.6000000000001" y2="74" stroke="#16202c" stroke-width="0.8"/>
<line x1="137" y1="233.8" x2="1063.6000000000001" y2="233.8" stroke="#16202c" stroke-width="0.8"/>
<text x="157" y="88" font-family="Inter,sans-serif" font-size="8.5" fill="#50627a" font-weight="600" letter-spacing="0.5">SEP</text>
<line x1="157" y1="92" x2="157" y2="96" stroke="#1a2332" stroke-width="0.8"/>
<text x="241" y="88" font-family="Inter,sans-serif" font-size="8.5" fill="#50627a" font-weight="600" letter-spacing="0.5">NOV</text>
<line x1="241" y1="92" x2="241" y2="96" stroke="#1a2332" stroke-width="0.8"/>
<text x="325" y="88" font-family="Inter,sans-serif" font-size="8.5" fill="#50627a" font-weight="600" letter-spacing="0.5">DEC</text>
<line x1="325" y1="92" x2="325" y2="96" stroke="#1a2332" stroke-width="0.8"/>
<text x="392.20000000000005" y="88" font-family="Inter,sans-serif" font-size="8.5" fill="#50627a" font-weight="600" letter-spacing="0.5">JAN</text>
<line x1="392.20000000000005" y1="92" x2="392.20000000000005" y2="96" stroke="#1a2332" stroke-width="0.8"/>
<text x="476.2" y="88" font-family="Inter,sans-serif" font-size="8.5" fill="#50627a" font-weight="600" letter-spacing="0.5">FEB</text>
<line x1="476.2" y1="92" x2="476.2" y2="96" stroke="#1a2332" stroke-width="0.8"/>
<text x="543.4000000000001" y="88" font-family="Inter,sans-serif" font-size="8.5" fill="#50627a" font-weight="600" letter-spacing="0.5">MAR</text>
<line x1="543.4000000000001" y1="92" x2="543.4000000000001" y2="96" stroke="#1a2332" stroke-width="0.8"/>
<text x="610.6" y="88" font-family="Inter,sans-serif" font-size="8.5" fill="#50627a" font-weight="600" letter-spacing="0.5">APR</text>
<line x1="610.6" y1="92" x2="610.6" y2="96" stroke="#1a2332" stroke-width="0.8"/>
<text x="677.8000000000001" y="88" font-family="Inter,sans-serif" font-size="8.5" fill="#50627a" font-weight="600" letter-spacing="0.5">MAY</text>
<line x1="677.8000000000001" y1="92" x2="677.8000000000001" y2="96" stroke="#1a2332" stroke-width="0.8"/>
<text x="761.8000000000001" y="88" font-family="Inter,sans-serif" font-size="8.5" fill="#50627a" font-weight="600" letter-spacing="0.5">JUN</text>
<line x1="761.8000000000001" y1="92" x2="761.8000000000001" y2="96" stroke="#1a2332" stroke-width="0.8"/>
<text x="829" y="88" font-family="Inter,sans-serif" font-size="8.5" fill="#50627a" font-weight="600" letter-spacing="0.5">JUL</text>
<line x1="829" y1="92" x2="829" y2="96" stroke="#1a2332" stroke-width="0.8"/>
<text x="896.2" y="88" font-family="Inter,sans-serif" font-size="8.5" fill="#50627a" font-weight="600" letter-spacing="0.5">AUG</text>
<line x1="896.2" y1="92" x2="896.2" y2="96" stroke="#1a2332" stroke-width="0.8"/>
<text x="980.2" y="88" font-family="Inter,sans-serif" font-size="8.5" fill="#50627a" font-weight="600" letter-spacing="0.5">SEP</text>
<line x1="980.2" y1="92" x2="980.2" y2="96" stroke="#1a2332" stroke-width="0.8"/>
<text x="143" y="126.55" font-family="Inter,sans-serif" font-size="8" fill="#50627a" text-anchor="end" font-weight="500">MON</text>
<text x="143" y="160.15" font-family="Inter,sans-serif" font-size="8" fill="#50627a" text-anchor="end" font-weight="500">WED</text>
<text x="143" y="193.75" font-family="Inter,sans-serif" font-size="8" fill="#50627a" text-anchor="end" font-weight="500">FRI</text>
<rect x="157" y="100" width="13" height="13" rx="2" fill="rgba(255,255,255,0.03)" stroke="rgba(255,255,255,0.05)" stroke-width="0.5"/>
<rect x="157" y="116.8" width="13" height="13" rx="2" fill="rgba(255,255,255,0.03)" stroke="rgba(255,255,255,0.05)" stroke-width="0.5"/>
<rect x="157" y="133.6" width="13" height="13" rx="2" fill="rgba(255,255,255,0.03)" stroke="rgba(255,255,255,0.05)" stroke-width="0.5"/>
<rect x="157" y="150.4" width="13" height="13" rx="2" fill="rgba(255,255,255,0.03)" stroke="rgba(255,255,255,0.05)" stroke-width="0.5"/>
<rect x="157" y="167.2" width="13" height="13" rx="2" fill="rgba(255,255,255,0.03)" stroke="rgba(255,255,255,0.05)" stroke-width="0.5"/>
<rect x="157" y="184" width="13" height="13" rx="2" fill="rgba(255,255,255,0.03)" stroke="rgba(255,255,255,0.05)" stroke-width="0.5"/>
<rect x="157" y="200.8" width="13" height="13" rx="2" fill="rgba(255,255,255,0.03)" stroke="rgba(255,255,255,0.05)" stroke-width="0.5"/>
<rect x="173.8" y="100" width="13" height="13" rx="2" fill="rgba(255,255,255,0.03)" stroke="rgba(255,255,255,0.05)" stroke-width="0.5"/>
<rect x="173.8" y="116.8" width="13" height="13" rx="2" fill="rgba(255,255,255,0.03)" stroke="rgba(255,255,255,0.05)" stroke-width="0.5"/>
<rect x="173.8" y="133.6" width="13" height="13" rx="2" fill="rgba(255,255,255,0.03)" stroke="rgba(255,255,255,0.05)" stroke-width="0.5"/>
<rect x="173.8" y="150.4" width="13" height="13" rx="2" fill="rgba(255,255,255,0.03)" stroke="rgba(255,255,255,0.05)" stroke-width="0.5"/>
<rect x="173.8" y="167.2" width="13" height="13" rx="2" fill="rgba(255,255,255,0.03)" stroke="rgba(255,255,255,0.05)" stroke-width="0.5"/>
<rect x="173.8" y="184" width="13" height="13" rx="2" fill="rgba(255,255,255,0.03)" stroke="rgba(255,255,255,0.05)" stroke-width="0.5"/>
<rect x="173.8" y="200.8" width="13" height="13" rx="2" fill="rgba(255,255,255,0.03)" stroke="rgba(255,255,255,0.05)" stroke-width="0.5"/>
<rect x="190.6" y="100" width="13" height="13" rx="2" fill="rgba(255,255,255,0.03)" stroke="rgba(255,255,255,0.05)" stroke-width="0.5"/>
<rect x="190.6" y="116.8" width="13" height="13" rx="2" fill="rgba(255,255,255,0.03)" stroke="rgba(255,255,255,0.05)" stroke-width="0.5"/>
<rect x="190.6" y="133.6" width="13" height="13" rx="2" fill="rgba(255,255,255,0.03)" stroke="rgba(255,255,255,0.05)" stroke-width="0.5"/>
<rect x="190.6" y="150.4" width="13" height="13" rx="2" fill="rgba(255,255,255,0.03)" stroke="rgba(255,255,255,0.05)" stroke-width="0.5"/>
<rect x="190.6" y="167.2" width="13" height="13" rx="2" fill="rgba(255,255,255,0.03)" stroke="rgba(255,255,255,0.05)" stroke-width="0.5"/>
<rect x="190.6" y="184" width="13" height="13" rx="2" fill="rgba(255,255,255,0.03)" stroke="rgba(255,255,255,0.05)" stroke-width="0.5"/>
<rect x="190.6" y="200.8" width="13" height="13" rx="2" fill="rgba(255,255,255,0.03)" stroke="rgba(255,255,255,0.05)" stroke-width="0.5"/>
<rect x="207.4" y="100" width="13" height="13" rx="2" fill="rgba(255,255,255,0.03)" stroke="rgba(255,255,255,0.05)" stroke-width="0.5"/>
<rect x="207.4" y="116.8" width="13" height="13" rx="2" fill="rgba(255,255,255,0.03)" stroke="rgba(255,255,255,0.05)" stroke-width="0.5"/>
<rect x="207.4" y="133.6" width="13" height="13" rx="2" fill="rgba(255,255,255,0.03)" stroke="rgba(255,255,255,0.05)" stroke-width="0.5"/>
<rect x="207.4" y="150.4" width="13" height="13" rx="2" fill="rgba(255,255,255,0.03)" stroke="rgba(255,255,255,0.05)" stroke-width="0.5"/>
<rect x="207.4" y="167.2" width="13" height="13" rx="2" fill="rgba(255,255,255,0.03)" stroke="rgba(255,255,255,0.05)" stroke-width="0.5"/>
<rect x="207.4" y="184" width="13" height="13" rx="2" fill="rgba(255,255,255,0.03)" stroke="rgba(255,255,255,0.05)" stroke-width="0.5"/>
<rect x="207.4" y="200.8" width="13" height="13" rx="2" fill="rgba(255,255,255,0.03)" stroke="rgba(255,255,255,0.05)" stroke-width="0.5"/>
<rect x="224.2" y="100" width="13" height="13" rx="2" fill="rgba(255,255,255,0.03)" stroke="rgba(255,255,255,0.05)" stroke-width="0.5"/>
<rect x="224.2" y="116.8" width="13" height="13" rx="2" fill="rgba(255,255,255,0.03)" stroke="rgba(255,255,255,0.05)" stroke-width="0.5"/>
<rect x="224.2" y="133.6" width="13" height="13" rx="2" fill="rgba(255,255,255,0.03)" stroke="rgba(255,255,255,0.05)" stroke-width="0.5"/>
<rect x="224.2" y="150.4" width="13" height="13" rx="2" fill="rgba(255,255,255,0.03)" stroke="rgba(255,255,255,0.05)" stroke-width="0.5"/>
<rect x="224.2" y="167.2" width="13" height="13" rx="2" fill="rgba(255,255,255,0.03)" stroke="rgba(255,255,255,0.05)" stroke-width="0.5"/>
<rect x="224.2" y="184" width="13" height="13" rx="2" fill="rgba(255,255,255,0.03)" stroke="rgba(255,255,255,0.05)" stroke-width="0.5"/>
<rect x="224.2" y="200.8" width="13" height="13" rx="2" fill="rgba(255,255,255,0.03)" stroke="rgba(255,255,255,0.05)" stroke-width="0.5"/>
<rect x="241" y="100" width="13" height="13" rx="2" fill="rgba(255,255,255,0.03)" stroke="rgba(255,255,255,0.05)" stroke-width="0.5"/>
<rect x="241" y="116.8" width="13" height="13" rx="2" fill="rgba(255,255,255,0.03)" stroke="rgba(255,255,255,0.05)" stroke-width="0.5"/>
<rect x="241" y="133.6" width="13" height="13" rx="2" fill="rgba(255,255,255,0.03)" stroke="rgba(255,255,255,0.05)" stroke-width="0.5"/>
<rect x="241" y="150.4" width="13" height="13" rx="2" fill="rgba(255,255,255,0.03)" stroke="rgba(255,255,255,0.05)" stroke-width="0.5"/>
<rect x="241" y="167.2" width="13" height="13" rx="2" fill="rgba(255,255,255,0.03)" stroke="rgba(255,255,255,0.05)" stroke-width="0.5"/>
<rect x="241" y="184" width="13" height="13" rx="2" fill="rgba(255,255,255,0.03)" stroke="rgba(255,255,255,0.05)" stroke-width="0.5"/>
<rect x="241" y="200.8" width="13" height="13" rx="2" fill="rgba(255,255,255,0.03)" stroke="rgba(255,255,255,0.05)" stroke-width="0.5"/>
<rect x="257.8" y="100" width="13" height="13" rx="2" fill="rgba(255,255,255,0.03)" stroke="rgba(255,255,255,0.05)" stroke-width="0.5"/>
<rect x="257.8" y="116.8" width="13" height="13" rx="2" fill="rgba(255,255,255,0.03)" stroke="rgba(255,255,255,0.05)" stroke-width="0.5"/>
<rect x="257.8" y="133.6" width="13" height="13" rx="2" fill="rgba(255,255,255,0.03)" stroke="rgba(255,255,255,0.05)" stroke-width="0.5"/>
<rect x="257.8" y="150.4" width="13" height="13" rx="2" fill="rgba(255,255,255,0.03)" stroke="rgba(255,255,255,0.05)" stroke-width="0.5"/>
<rect x="257.8" y="167.2" width="13" height="13" rx="2" fill="rgba(255,255,255,0.03)" stroke="rgba(255,255,255,0.05)" stroke-width="0.5"/>
<rect x="257.8" y="184" width="13" height="13" rx="2" fill="rgba(255,255,255,0.03)" stroke="rgba(255,255,255,0.05)" stroke-width="0.5"/>
<rect x="257.8" y="200.8" width="13" height="13" rx="2" fill="rgba(255,255,255,0.03)" stroke="rgba(255,255,255,0.05)" stroke-width="0.5"/>
<rect x="274.6" y="100" width="13" height="13" rx="2" fill="rgba(255,255,255,0.03)" stroke="rgba(255,255,255,0.05)" stroke-width="0.5"/>
<rect x="274.6" y="116.8" width="13" height="13" rx="2" fill="rgba(255,255,255,0.03)" stroke="rgba(255,255,255,0.05)" stroke-width="0.5"/>
<rect x="274.6" y="133.6" width="13" height="13" rx="2" fill="rgba(255,255,255,0.03)" stroke="rgba(255,255,255,0.05)" stroke-width="0.5"/>
<rect x="274.6" y="150.4" width="13" height="13" rx="2" fill="rgba(255,255,255,0.03)" stroke="rgba(255,255,255,0.05)" stroke-width="0.5"/>
<rect x="274.6" y="167.2" width="13" height="13" rx="2" fill="rgba(255,255,255,0.03)" stroke="rgba(255,255,255,0.05)" stroke-width="0.5"/>
<rect x="274.6" y="184" width="13" height="13" rx="2" fill="rgba(255,255,255,0.03)" stroke="rgba(255,255,255,0.05)" stroke-width="0.5"/>
<rect x="274.6" y="200.8" width="13" height="13" rx="2" fill="rgba(255,255,255,0.03)" stroke="rgba(255,255,255,0.05)" stroke-width="0.5"/>
<rect x="291.4" y="100" width="13" height="13" rx="2" fill="rgba(255,255,255,0.03)" stroke="rgba(255,255,255,0.05)" stroke-width="0.5"/>
<rect x="291.4" y="116.8" width="13" height="13" rx="2" fill="rgba(255,255,255,0.03)" stroke="rgba(255,255,255,0.05)" stroke-width="0.5"/>
<rect x="291.4" y="133.6" width="13" height="13" rx="2" fill="rgba(255,255,255,0.03)" stroke="rgba(255,255,255,0.05)" stroke-width="0.5"/>
<rect x="291.4" y="150.4" width="13" height="13" rx="2" fill="rgba(255,255,255,0.03)" stroke="rgba(255,255,255,0.05)" stroke-width="0.5"/>
<rect x="291.4" y="167.2" width="13" height="13" rx="2" fill="rgba(255,255,255,0.03)" stroke="rgba(255,255,255,0.05)" stroke-width="0.5"/>
<rect x="291.4" y="184" width="13" height="13" rx="2" fill="rgba(255,255,255,0.03)" stroke="rgba(255,255,255,0.05)" stroke-width="0.5"/>
<rect x="291.4" y="200.8" width="13" height="13" rx="2" fill="rgba(255,255,255,0.03)" stroke="rgba(255,255,255,0.05)" stroke-width="0.5"/>
<rect x="308.20000000000005" y="100" width="13" height="13" rx="2" fill="rgba(255,255,255,0.03)" stroke="rgba(255,255,255,0.05)" stroke-width="0.5"/>
<rect x="308.20000000000005" y="116.8" width="13" height="13" rx="2" fill="rgba(255,255,255,0.03)" stroke="rgba(255,255,255,0.05)" stroke-width="0.5"/>
<rect x="308.20000000000005" y="133.6" width="13" height="13" rx="2" fill="rgba(255,255,255,0.03)" stroke="rgba(255,255,255,0.05)" stroke-width="0.5"/>
<rect x="308.20000000000005" y="150.4" width="13" height="13" rx="2" fill="rgba(255,255,255,0.03)" stroke="rgba(255,255,255,0.05)" stroke-width="0.5"/>
<rect x="308.20000000000005" y="167.2" width="13" height="13" rx="2" fill="rgba(255,255,255,0.03)" stroke="rgba(255,255,255,0.05)" stroke-width="0.5"/>
<rect x="308.20000000000005" y="184" width="13" height="13" rx="2" fill="rgba(255,255,255,0.03)" stroke="rgba(255,255,255,0.05)" stroke-width="0.5"/>
<rect x="308.20000000000005" y="200.8" width="13" height="13" rx="2" fill="rgba(255,255,255,0.03)" stroke="rgba(255,255,255,0.05)" stroke-width="0.5"/>
<rect x="325" y="100" width="13" height="13" rx="2" fill="rgba(255,255,255,0.03)" stroke="rgba(255,255,255,0.05)" stroke-width="0.5"/>
<rect x="325" y="116.8" width="13" height="13" rx="2" fill="rgba(255,255,255,0.03)" stroke="rgba(255,255,255,0.05)" stroke-width="0.5"/>
<rect x="325" y="133.6" width="13" height="13" rx="2" fill="rgba(255,255,255,0.03)" stroke="rgba(255,255,255,0.05)" stroke-width="0.5"/>
<rect x="325" y="150.4" width="13" height="13" rx="2" fill="rgba(255,255,255,0.03)" stroke="rgba(255,255,255,0.05)" stroke-width="0.5"/>
<rect x="325" y="167.2" width="13" height="13" rx="2" fill="rgba(255,255,255,0.03)" stroke="rgba(255,255,255,0.05)" stroke-width="0.5"/>
<rect x="325" y="184" width="13" height="13" rx="2" fill="rgba(255,255,255,0.03)" stroke="rgba(255,255,255,0.05)" stroke-width="0.5"/>
<rect x="325" y="200.8" width="13" height="13" rx="2" fill="rgba(255,255,255,0.03)" stroke="rgba(255,255,255,0.05)" stroke-width="0.5"/>
<rect x="341.8" y="100" width="13" height="13" rx="2" fill="rgba(0, 240, 255, 0.75)"/>
<rect x="341.8" y="116.8" width="13" height="13" rx="2" fill="rgba(255,255,255,0.03)" stroke="rgba(255,255,255,0.05)" stroke-width="0.5"/>
<rect x="341.8" y="133.6" width="13" height="13" rx="2" fill="rgba(255,255,255,0.03)" stroke="rgba(255,255,255,0.05)" stroke-width="0.5"/>
<rect x="341.8" y="150.4" width="13" height="13" rx="2" fill="rgba(255,255,255,0.03)" stroke="rgba(255,255,255,0.05)" stroke-width="0.5"/>
<rect x="341.8" y="167.2" width="13" height="13" rx="2" fill="rgba(255,255,255,0.03)" stroke="rgba(255,255,255,0.05)" stroke-width="0.5"/>
<rect x="341.8" y="184" width="13" height="13" rx="2" fill="rgba(255,255,255,0.03)" stroke="rgba(255,255,255,0.05)" stroke-width="0.5"/>
<rect x="341.8" y="200.8" width="13" height="13" rx="2" fill="rgba(255,255,255,0.03)" stroke="rgba(255,255,255,0.05)" stroke-width="0.5"/>
<rect x="358.6" y="100" width="13" height="13" rx="2" fill="rgba(255,255,255,0.03)" stroke="rgba(255,255,255,0.05)" stroke-width="0.5"/>
<rect x="358.6" y="116.8" width="13" height="13" rx="2" fill="rgba(255,255,255,0.03)" stroke="rgba(255,255,255,0.05)" stroke-width="0.5"/>
<rect x="358.6" y="133.6" width="13" height="13" rx="2" fill="rgba(255,255,255,0.03)" stroke="rgba(255,255,255,0.05)" stroke-width="0.5"/>
<rect x="358.6" y="150.4" width="13" height="13" rx="2" fill="rgba(255,255,255,0.03)" stroke="rgba(255,255,255,0.05)" stroke-width="0.5"/>
<rect x="358.6" y="167.2" width="13" height="13" rx="2" fill="rgba(255,255,255,0.03)" stroke="rgba(255,255,255,0.05)" stroke-width="0.5"/>
<rect x="358.6" y="184" width="13" height="13" rx="2" fill="rgba(255,255,255,0.03)" stroke="rgba(255,255,255,0.05)" stroke-width="0.5"/>
<rect x="358.6" y="200.8" width="13" height="13" rx="2" fill="rgba(255,255,255,0.03)" stroke="rgba(255,255,255,0.05)" stroke-width="0.5"/>
<rect x="375.4" y="100" width="13" height="13" rx="2" fill="rgba(255,255,255,0.03)" stroke="rgba(255,255,255,0.05)" stroke-width="0.5"/>
<rect x="375.4" y="116.8" width="13" height="13" rx="2" fill="rgba(255,255,255,0.03)" stroke="rgba(255,255,255,0.05)" stroke-width="0.5"/>
<rect x="375.4" y="133.6" width="13" height="13" rx="2" fill="rgba(255,255,255,0.03)" stroke="rgba(255,255,255,0.05)" stroke-width="0.5"/>
<rect x="375.4" y="150.4" width="13" height="13" rx="2" fill="rgba(255,255,255,0.03)" stroke="rgba(255,255,255,0.05)" stroke-width="0.5"/>
<rect x="375.4" y="167.2" width="13" height="13" rx="2" fill="rgba(255,255,255,0.03)" stroke="rgba(255,255,255,0.05)" stroke-width="0.5"/>
<rect x="375.4" y="184" width="13" height="13" rx="2" fill="rgba(255,255,255,0.03)" stroke="rgba(255,255,255,0.05)" stroke-width="0.5"/>
<rect x="375.4" y="200.8" width="13" height="13" rx="2" fill="rgba(255,255,255,0.03)" stroke="rgba(255,255,255,0.05)" stroke-width="0.5"/>
<rect x="392.20000000000005" y="100" width="13" height="13" rx="2" fill="rgba(255,255,255,0.03)" stroke="rgba(255,255,255,0.05)" stroke-width="0.5"/>
<rect x="392.20000000000005" y="116.8" width="13" height="13" rx="2" fill="rgba(255,255,255,0.03)" stroke="rgba(255,255,255,0.05)" stroke-width="0.5"/>
<rect x="392.20000000000005" y="133.6" width="13" height="13" rx="2" fill="rgba(255,255,255,0.03)" stroke="rgba(255,255,255,0.05)" stroke-width="0.5"/>
<rect x="392.20000000000005" y="150.4" width="13" height="13" rx="2" fill="rgba(255,255,255,0.03)" stroke="rgba(255,255,255,0.05)" stroke-width="0.5"/>
<rect x="392.20000000000005" y="167.2" width="13" height="13" rx="2" fill="rgba(255,255,255,0.03)" stroke="rgba(255,255,255,0.05)" stroke-width="0.5"/>
<rect x="392.20000000000005" y="184" width="13" height="13" rx="2" fill="rgba(255,255,255,0.03)" stroke="rgba(255,255,255,0.05)" stroke-width="0.5"/>
<rect x="392.20000000000005" y="200.8" width="13" height="13" rx="2" fill="rgba(255,255,255,0.03)" stroke="rgba(255,255,255,0.05)" stroke-width="0.5"/>
<rect x="409" y="100" width="13" height="13" rx="2" fill="rgba(255,255,255,0.03)" stroke="rgba(255,255,255,0.05)" stroke-width="0.5"/>
<rect x="409" y="116.8" width="13" height="13" rx="2" fill="rgba(255,255,255,0.03)" stroke="rgba(255,255,255,0.05)" stroke-width="0.5"/>
<rect x="409" y="133.6" width="13" height="13" rx="2" fill="rgba(255,255,255,0.03)" stroke="rgba(255,255,255,0.05)" stroke-width="0.5"/>
<rect x="409" y="150.4" width="13" height="13" rx="2" fill="rgba(255,255,255,0.03)" stroke="rgba(255,255,255,0.05)" stroke-width="0.5"/>
<rect x="409" y="167.2" width="13" height="13" rx="2" fill="rgba(255,255,255,0.03)" stroke="rgba(255,255,255,0.05)" stroke-width="0.5"/>
<rect x="409" y="184" width="13" height="13" rx="2" fill="rgba(255,255,255,0.03)" stroke="rgba(255,255,255,0.05)" stroke-width="0.5"/>
<rect x="409" y="200.8" width="13" height="13" rx="2" fill="rgba(255,255,255,0.03)" stroke="rgba(255,255,255,0.05)" stroke-width="0.5"/>
<rect x="425.8" y="100" width="13" height="13" rx="2" fill="rgba(255,255,255,0.03)" stroke="rgba(255,255,255,0.05)" stroke-width="0.5"/>
<rect x="425.8" y="116.8" width="13" height="13" rx="2" fill="rgba(255,255,255,0.03)" stroke="rgba(255,255,255,0.05)" stroke-width="0.5"/>
<rect x="425.8" y="133.6" width="13" height="13" rx="2" fill="rgba(255,255,255,0.03)" stroke="rgba(255,255,255,0.05)" stroke-width="0.5"/>
<rect x="425.8" y="150.4" width="13" height="13" rx="2" fill="rgba(255,255,255,0.03)" stroke="rgba(255,255,255,0.05)" stroke-width="0.5"/>
<rect x="425.8" y="167.2" width="13" height="13" rx="2" fill="rgba(255,255,255,0.03)" stroke="rgba(255,255,255,0.05)" stroke-width="0.5"/>
<rect x="425.8" y="184" width="13" height="13" rx="2" fill="rgba(255,255,255,0.03)" stroke="rgba(255,255,255,0.05)" stroke-width="0.5"/>
<rect x="425.8" y="200.8" width="13" height="13" rx="2" fill="rgba(255,255,255,0.03)" stroke="rgba(255,255,255,0.05)" stroke-width="0.5"/>
<rect x="442.6" y="100" width="13" height="13" rx="2" fill="rgba(255,255,255,0.03)" stroke="rgba(255,255,255,0.05)" stroke-width="0.5"/>
<rect x="442.6" y="116.8" width="13" height="13" rx="2" fill="rgba(255,255,255,0.03)" stroke="rgba(255,255,255,0.05)" stroke-width="0.5"/>
<rect x="442.6" y="133.6" width="13" height="13" rx="2" fill="rgba(255,255,255,0.03)" stroke="rgba(255,255,255,0.05)" stroke-width="0.5"/>
<rect x="442.6" y="150.4" width="13" height="13" rx="2" fill="rgba(255,255,255,0.03)" stroke="rgba(255,255,255,0.05)" stroke-width="0.5"/>
<rect x="442.6" y="167.2" width="13" height="13" rx="2" fill="rgba(255,255,255,0.03)" stroke="rgba(255,255,255,0.05)" stroke-width="0.5"/>
<rect x="442.6" y="184" width="13" height="13" rx="2" fill="rgba(255,255,255,0.03)" stroke="rgba(255,255,255,0.05)" stroke-width="0.5"/>
<rect x="442.6" y="200.8" width="13" height="13" rx="2" fill="rgba(255,255,255,0.03)" stroke="rgba(255,255,255,0.05)" stroke-width="0.5"/>
<rect x="459.40000000000003" y="100" width="13" height="13" rx="2" fill="rgba(255,255,255,0.03)" stroke="rgba(255,255,255,0.05)" stroke-width="0.5"/>
<rect x="459.40000000000003" y="116.8" width="13" height="13" rx="2" fill="rgba(255,255,255,0.03)" stroke="rgba(255,255,255,0.05)" stroke-width="0.5"/>
<rect x="459.40000000000003" y="133.6" width="13" height="13" rx="2" fill="rgba(255,255,255,0.03)" stroke="rgba(255,255,255,0.05)" stroke-width="0.5"/>
<rect x="459.40000000000003" y="150.4" width="13" height="13" rx="2" fill="rgba(255,255,255,0.03)" stroke="rgba(255,255,255,0.05)" stroke-width="0.5"/>
<rect x="459.40000000000003" y="167.2" width="13" height="13" rx="2" fill="rgba(255,255,255,0.03)" stroke="rgba(255,255,255,0.05)" stroke-width="0.5"/>
<rect x="459.40000000000003" y="184" width="13" height="13" rx="2" fill="rgba(0, 240, 255, 0.75)"/>
<rect x="459.40000000000003" y="200.8" width="13" height="13" rx="2" fill="rgba(255,255,255,0.03)" stroke="rgba(255,255,255,0.05)" stroke-width="0.5"/>
<rect x="476.2" y="100" width="13" height="13" rx="2" fill="rgba(255,255,255,0.03)" stroke="rgba(255,255,255,0.05)" stroke-width="0.5"/>
<rect x="476.2" y="116.8" width="13" height="13" rx="2" fill="rgba(255,255,255,0.03)" stroke="rgba(255,255,255,0.05)" stroke-width="0.5"/>
<rect x="476.2" y="133.6" width="13" height="13" rx="2" fill="rgba(255,255,255,0.03)" stroke="rgba(255,255,255,0.05)" stroke-width="0.5"/>
<rect x="476.2" y="150.4" width="13" height="13" rx="2" fill="rgba(255,255,255,0.03)" stroke="rgba(255,255,255,0.05)" stroke-width="0.5"/>
<rect x="476.2" y="167.2" width="13" height="13" rx="2" fill="rgba(255,255,255,0.03)" stroke="rgba(255,255,255,0.05)" stroke-width="0.5"/>
<rect x="476.2" y="184" width="13" height="13" rx="2" fill="rgba(255,255,255,0.03)" stroke="rgba(255,255,255,0.05)" stroke-width="0.5"/>
<rect x="476.2" y="200.8" width="13" height="13" rx="2" fill="rgba(255,255,255,0.03)" stroke="rgba(255,255,255,0.05)" stroke-width="0.5"/>
<rect x="493" y="100" width="13" height="13" rx="2" fill="rgba(255,255,255,0.03)" stroke="rgba(255,255,255,0.05)" stroke-width="0.5"/>
<rect x="493" y="116.8" width="13" height="13" rx="2" fill="rgba(255,255,255,0.03)" stroke="rgba(255,255,255,0.05)" stroke-width="0.5"/>
<rect x="493" y="133.6" width="13" height="13" rx="2" fill="rgba(255,255,255,0.03)" stroke="rgba(255,255,255,0.05)" stroke-width="0.5"/>
<rect x="493" y="150.4" width="13" height="13" rx="2" fill="rgba(255,255,255,0.03)" stroke="rgba(255,255,255,0.05)" stroke-width="0.5"/>
<rect x="493" y="167.2" width="13" height="13" rx="2" fill="rgba(255,255,255,0.03)" stroke="rgba(255,255,255,0.05)" stroke-width="0.5"/>
<rect x="493" y="184" width="13" height="13" rx="2" fill="rgba(255,255,255,0.03)" stroke="rgba(255,255,255,0.05)" stroke-width="0.5"/>
<rect x="493" y="200.8" width="13" height="13" rx="2" fill="rgba(255,255,255,0.03)" stroke="rgba(255,255,255,0.05)" stroke-width="0.5"/>
<rect x="509.8" y="100" width="13" height="13" rx="2" fill="rgba(255,255,255,0.03)" stroke="rgba(255,255,255,0.05)" stroke-width="0.5"/>
<rect x="509.8" y="116.8" width="13" height="13" rx="2" fill="rgba(255,255,255,0.03)" stroke="rgba(255,255,255,0.05)" stroke-width="0.5"/>
<rect x="509.8" y="133.6" width="13" height="13" rx="2" fill="rgba(255,255,255,0.03)" stroke="rgba(255,255,255,0.05)" stroke-width="0.5"/>
<rect x="509.8" y="150.4" width="13" height="13" rx="2" fill="rgba(255,255,255,0.03)" stroke="rgba(255,255,255,0.05)" stroke-width="0.5"/>
<rect x="509.8" y="167.2" width="13" height="13" rx="2" fill="rgba(255,255,255,0.03)" stroke="rgba(255,255,255,0.05)" stroke-width="0.5"/>
<rect x="509.8" y="184" width="13" height="13" rx="2" fill="rgba(255,255,255,0.03)" stroke="rgba(255,255,255,0.05)" stroke-width="0.5"/>
<rect x="509.8" y="200.8" width="13" height="13" rx="2" fill="rgba(255,255,255,0.03)" stroke="rgba(255,255,255,0.05)" stroke-width="0.5"/>
<rect x="526.6" y="100" width="13" height="13" rx="2" fill="rgba(255,255,255,0.03)" stroke="rgba(255,255,255,0.05)" stroke-width="0.5"/>
<rect x="526.6" y="116.8" width="13" height="13" rx="2" fill="rgba(255,255,255,0.03)" stroke="rgba(255,255,255,0.05)" stroke-width="0.5"/>
<rect x="526.6" y="133.6" width="13" height="13" rx="2" fill="rgba(255,255,255,0.03)" stroke="rgba(255,255,255,0.05)" stroke-width="0.5"/>
<rect x="526.6" y="150.4" width="13" height="13" rx="2" fill="rgba(255,255,255,0.03)" stroke="rgba(255,255,255,0.05)" stroke-width="0.5"/>
<rect x="526.6" y="167.2" width="13" height="13" rx="2" fill="rgba(255,255,255,0.03)" stroke="rgba(255,255,255,0.05)" stroke-width="0.5"/>
<rect x="526.6" y="184" width="13" height="13" rx="2" fill="rgba(255,255,255,0.03)" stroke="rgba(255,255,255,0.05)" stroke-width="0.5"/>
<rect x="526.6" y="200.8" width="13" height="13" rx="2" fill="rgba(255,255,255,0.03)" stroke="rgba(255,255,255,0.05)" stroke-width="0.5"/>
<rect x="543.4000000000001" y="100" width="13" height="13" rx="2" fill="rgba(255,255,255,0.03)" stroke="rgba(255,255,255,0.05)" stroke-width="0.5"/>
<rect x="543.4000000000001" y="116.8" width="13" height="13" rx="2" fill="rgba(255,255,255,0.03)" stroke="rgba(255,255,255,0.05)" stroke-width="0.5"/>
<rect x="543.4000000000001" y="133.6" width="13" height="13" rx="2" fill="rgba(255,255,255,0.03)" stroke="rgba(255,255,255,0.05)" stroke-width="0.5"/>
<rect x="543.4000000000001" y="150.4" width="13" height="13" rx="2" fill="rgba(255,255,255,0.03)" stroke="rgba(255,255,255,0.05)" stroke-width="0.5"/>
<rect x="543.4000000000001" y="167.2" width="13" height="13" rx="2" fill="rgba(255,255,255,0.03)" stroke="rgba(255,255,255,0.05)" stroke-width="0.5"/>
<rect x="543.4000000000001" y="184" width="13" height="13" rx="2" fill="rgba(255,255,255,0.03)" stroke="rgba(255,255,255,0.05)" stroke-width="0.5"/>
<rect x="543.4000000000001" y="200.8" width="13" height="13" rx="2" fill="rgba(255,255,255,0.03)" stroke="rgba(255,255,255,0.05)" stroke-width="0.5"/>
<rect x="560.2" y="100" width="13" height="13" rx="2" fill="rgba(255,255,255,0.03)" stroke="rgba(255,255,255,0.05)" stroke-width="0.5"/>
<rect x="560.2" y="116.8" width="13" height="13" rx="2" fill="rgba(255,255,255,0.03)" stroke="rgba(255,255,255,0.05)" stroke-width="0.5"/>
<rect x="560.2" y="133.6" width="13" height="13" rx="2" fill="rgba(255,255,255,0.03)" stroke="rgba(255,255,255,0.05)" stroke-width="0.5"/>
<rect x="560.2" y="150.4" width="13" height="13" rx="2" fill="rgba(255,255,255,0.03)" stroke="rgba(255,255,255,0.05)" stroke-width="0.5"/>
<rect x="560.2" y="167.2" width="13" height="13" rx="2" fill="rgba(255,255,255,0.03)" stroke="rgba(255,255,255,0.05)" stroke-width="0.5"/>
<rect x="560.2" y="184" width="13" height="13" rx="2" fill="rgba(255,255,255,0.03)" stroke="rgba(255,255,255,0.05)" stroke-width="0.5"/>
<rect x="560.2" y="200.8" width="13" height="13" rx="2" fill="rgba(255,255,255,0.03)" stroke="rgba(255,255,255,0.05)" stroke-width="0.5"/>
<rect x="577" y="100" width="13" height="13" rx="2" fill="rgba(255,255,255,0.03)" stroke="rgba(255,255,255,0.05)" stroke-width="0.5"/>
<rect x="577" y="116.8" width="13" height="13" rx="2" fill="rgba(255,255,255,0.03)" stroke="rgba(255,255,255,0.05)" stroke-width="0.5"/>
<rect x="577" y="133.6" width="13" height="13" rx="2" fill="rgba(255,255,255,0.03)" stroke="rgba(255,255,255,0.05)" stroke-width="0.5"/>
<rect x="577" y="150.4" width="13" height="13" rx="2" fill="rgba(255,255,255,0.03)" stroke="rgba(255,255,255,0.05)" stroke-width="0.5"/>
<rect x="577" y="167.2" width="13" height="13" rx="2" fill="rgba(255,255,255,0.03)" stroke="rgba(255,255,255,0.05)" stroke-width="0.5"/>
<rect x="577" y="184" width="13" height="13" rx="2" fill="rgba(255,255,255,0.03)" stroke="rgba(255,255,255,0.05)" stroke-width="0.5"/>
<rect x="577" y="200.8" width="13" height="13" rx="2" fill="rgba(255,255,255,0.03)" stroke="rgba(255,255,255,0.05)" stroke-width="0.5"/>
<rect x="593.8" y="100" width="13" height="13" rx="2" fill="rgba(255,255,255,0.03)" stroke="rgba(255,255,255,0.05)" stroke-width="0.5"/>
<rect x="593.8" y="116.8" width="13" height="13" rx="2" fill="rgba(255,255,255,0.03)" stroke="rgba(255,255,255,0.05)" stroke-width="0.5"/>
<rect x="593.8" y="133.6" width="13" height="13" rx="2" fill="rgba(255,255,255,0.03)" stroke="rgba(255,255,255,0.05)" stroke-width="0.5"/>
<rect x="593.8" y="150.4" width="13" height="13" rx="2" fill="rgba(255,255,255,0.03)" stroke="rgba(255,255,255,0.05)" stroke-width="0.5"/>
<rect x="593.8" y="167.2" width="13" height="13" rx="2" fill="rgba(255,255,255,0.03)" stroke="rgba(255,255,255,0.05)" stroke-width="0.5"/>
<rect x="593.8" y="184" width="13" height="13" rx="2" fill="rgba(255,255,255,0.03)" stroke="rgba(255,255,255,0.05)" stroke-width="0.5"/>
<rect x="593.8" y="200.8" width="13" height="13" rx="2" fill="rgba(255,255,255,0.03)" stroke="rgba(255,255,255,0.05)" stroke-width="0.5"/>
<rect x="610.6" y="100" width="13" height="13" rx="2" fill="rgba(255,255,255,0.03)" stroke="rgba(255,255,255,0.05)" stroke-width="0.5"/>
<rect x="610.6" y="116.8" width="13" height="13" rx="2" fill="rgba(255,255,255,0.03)" stroke="rgba(255,255,255,0.05)" stroke-width="0.5"/>
<rect x="610.6" y="133.6" width="13" height="13" rx="2" fill="rgba(255,255,255,0.03)" stroke="rgba(255,255,255,0.05)" stroke-width="0.5"/>
<rect x="610.6" y="150.4" width="13" height="13" rx="2" fill="rgba(255,255,255,0.03)" stroke="rgba(255,255,255,0.05)" stroke-width="0.5"/>
<rect x="610.6" y="167.2" width="13" height="13" rx="2" fill="rgba(255,255,255,0.03)" stroke="rgba(255,255,255,0.05)" stroke-width="0.5"/>
<rect x="610.6" y="184" width="13" height="13" rx="2" fill="rgba(255,255,255,0.03)" stroke="rgba(255,255,255,0.05)" stroke-width="0.5"/>
<rect x="610.6" y="200.8" width="13" height="13" rx="2" fill="rgba(255,255,255,0.03)" stroke="rgba(255,255,255,0.05)" stroke-width="0.5"/>
<rect x="627.4000000000001" y="100" width="13" height="13" rx="2" fill="rgba(255,255,255,0.03)" stroke="rgba(255,255,255,0.05)" stroke-width="0.5"/>
<rect x="627.4000000000001" y="116.8" width="13" height="13" rx="2" fill="rgba(255,255,255,0.03)" stroke="rgba(255,255,255,0.05)" stroke-width="0.5"/>
<rect x="627.4000000000001" y="133.6" width="13" height="13" rx="2" fill="rgba(255,255,255,0.03)" stroke="rgba(255,255,255,0.05)" stroke-width="0.5"/>
<rect x="627.4000000000001" y="150.4" width="13" height="13" rx="2" fill="rgba(255,255,255,0.03)" stroke="rgba(255,255,255,0.05)" stroke-width="0.5"/>
<rect x="627.4000000000001" y="167.2" width="13" height="13" rx="2" fill="rgba(255,255,255,0.03)" stroke="rgba(255,255,255,0.05)" stroke-width="0.5"/>
<rect x="627.4000000000001" y="184" width="13" height="13" rx="2" fill="rgba(255,255,255,0.03)" stroke="rgba(255,255,255,0.05)" stroke-width="0.5"/>
<rect x="627.4000000000001" y="200.8" width="13" height="13" rx="2" fill="rgba(255,255,255,0.03)" stroke="rgba(255,255,255,0.05)" stroke-width="0.5"/>
<rect x="644.2" y="100" width="13" height="13" rx="2" fill="rgba(255,255,255,0.03)" stroke="rgba(255,255,255,0.05)" stroke-width="0.5"/>
<rect x="644.2" y="116.8" width="13" height="13" rx="2" fill="rgba(255,255,255,0.03)" stroke="rgba(255,255,255,0.05)" stroke-width="0.5"/>
<rect x="644.2" y="133.6" width="13" height="13" rx="2" fill="rgba(255, 255, 255, 0.45)"/>
<rect x="644.2" y="150.4" width="13" height="13" rx="2" fill="rgba(255,255,255,0.03)" stroke="rgba(255,255,255,0.05)" stroke-width="0.5"/>
<rect x="644.2" y="167.2" width="13" height="13" rx="2" fill="rgba(255,255,255,0.03)" stroke="rgba(255,255,255,0.05)" stroke-width="0.5"/>
<rect x="644.2" y="184" width="13" height="13" rx="2" fill="rgba(255,255,255,0.03)" stroke="rgba(255,255,255,0.05)" stroke-width="0.5"/>
<rect x="644.2" y="200.8" width="13" height="13" rx="2" fill="rgba(255,255,255,0.03)" stroke="rgba(255,255,255,0.05)" stroke-width="0.5"/>
<rect x="661" y="100" width="13" height="13" rx="2" fill="rgba(255,255,255,0.03)" stroke="rgba(255,255,255,0.05)" stroke-width="0.5"/>
<rect x="661" y="116.8" width="13" height="13" rx="2" fill="rgba(255,255,255,0.03)" stroke="rgba(255,255,255,0.05)" stroke-width="0.5"/>
<rect x="661" y="133.6" width="13" height="13" rx="2" fill="rgba(255,255,255,0.03)" stroke="rgba(255,255,255,0.05)" stroke-width="0.5"/>
<rect x="661" y="150.4" width="13" height="13" rx="2" fill="rgba(255,255,255,0.03)" stroke="rgba(255,255,255,0.05)" stroke-width="0.5"/>
<rect x="661" y="167.2" width="13" height="13" rx="2" fill="rgba(255,255,255,0.03)" stroke="rgba(255,255,255,0.05)" stroke-width="0.5"/>
<rect x="661" y="184" width="13" height="13" rx="2" fill="rgba(255,255,255,0.03)" stroke="rgba(255,255,255,0.05)" stroke-width="0.5"/>
<rect x="661" y="200.8" width="13" height="13" rx="2" fill="rgba(255,255,255,0.03)" stroke="rgba(255,255,255,0.05)" stroke-width="0.5"/>
<rect x="677.8000000000001" y="100" width="13" height="13" rx="2" fill="rgba(255, 255, 255, 0.45)"/>
<rect x="677.8000000000001" y="116.8" width="13" height="13" rx="2" fill="rgba(255,255,255,0.03)" stroke="rgba(255,255,255,0.05)" stroke-width="0.5"/>
<rect x="677.8000000000001" y="133.6" width="13" height="13" rx="2" fill="rgba(255,255,255,0.03)" stroke="rgba(255,255,255,0.05)" stroke-width="0.5"/>
<rect x="677.8000000000001" y="150.4" width="13" height="13" rx="2" fill="rgba(255,255,255,0.03)" stroke="rgba(255,255,255,0.05)" stroke-width="0.5"/>
<rect x="677.8000000000001" y="167.2" width="13" height="13" rx="2" fill="rgba(255,255,255,0.03)" stroke="rgba(255,255,255,0.05)" stroke-width="0.5"/>
<rect x="677.8000000000001" y="184" width="13" height="13" rx="2" fill="rgba(255,255,255,0.03)" stroke="rgba(255,255,255,0.05)" stroke-width="0.5"/>
<rect x="677.8000000000001" y="200.8" width="13" height="13" rx="2" fill="rgba(255,255,255,0.03)" stroke="rgba(255,255,255,0.05)" stroke-width="0.5"/>
<rect x="694.6" y="100" width="13" height="13" rx="2" fill="rgba(255,255,255,0.03)" stroke="rgba(255,255,255,0.05)" stroke-width="0.5"/>
<rect x="694.6" y="116.8" width="13" height="13" rx="2" fill="rgba(255,255,255,0.03)" stroke="rgba(255,255,255,0.05)" stroke-width="0.5"/>
<rect x="694.6" y="133.6" width="13" height="13" rx="2" fill="rgba(255,255,255,0.03)" stroke="rgba(255,255,255,0.05)" stroke-width="0.5"/>
<rect x="694.6" y="150.4" width="13" height="13" rx="2" fill="rgba(255,255,255,0.03)" stroke="rgba(255,255,255,0.05)" stroke-width="0.5"/>
<rect x="694.6" y="167.2" width="13" height="13" rx="2" fill="rgba(255,255,255,0.03)" stroke="rgba(255,255,255,0.05)" stroke-width="0.5"/>
<rect x="694.6" y="184" width="13" height="13" rx="2" fill="rgba(255,255,255,0.03)" stroke="rgba(255,255,255,0.05)" stroke-width="0.5"/>
<rect x="694.6" y="200.8" width="13" height="13" rx="2" fill="rgba(255,255,255,0.03)" stroke="rgba(255,255,255,0.05)" stroke-width="0.5"/>
<rect x="711.4" y="100" width="13" height="13" rx="2" fill="rgba(255,255,255,0.03)" stroke="rgba(255,255,255,0.05)" stroke-width="0.5"/>
<rect x="711.4" y="116.8" width="13" height="13" rx="2" fill="rgba(255,255,255,0.03)" stroke="rgba(255,255,255,0.05)" stroke-width="0.5"/>
<rect x="711.4" y="133.6" width="13" height="13" rx="2" fill="rgba(255,255,255,0.03)" stroke="rgba(255,255,255,0.05)" stroke-width="0.5"/>
<rect x="711.4" y="150.4" width="13" height="13" rx="2" fill="rgba(255,255,255,0.03)" stroke="rgba(255,255,255,0.05)" stroke-width="0.5"/>
<rect x="711.4" y="167.2" width="13" height="13" rx="2" fill="rgba(255,255,255,0.03)" stroke="rgba(255,255,255,0.05)" stroke-width="0.5"/>
<rect x="711.4" y="184" width="13" height="13" rx="2" fill="rgba(255,255,255,0.03)" stroke="rgba(255,255,255,0.05)" stroke-width="0.5"/>
<rect x="711.4" y="200.8" width="13" height="13" rx="2" fill="rgba(255,255,255,0.03)" stroke="rgba(255,255,255,0.05)" stroke-width="0.5"/>
<rect x="728.2" y="100" width="13" height="13" rx="2" fill="rgba(255,255,255,0.03)" stroke="rgba(255,255,255,0.05)" stroke-width="0.5"/>
<rect x="728.2" y="116.8" width="13" height="13" rx="2" fill="rgba(255,255,255,0.03)" stroke="rgba(255,255,255,0.05)" stroke-width="0.5"/>
<rect x="728.2" y="133.6" width="13" height="13" rx="2" fill="rgba(255,255,255,0.03)" stroke="rgba(255,255,255,0.05)" stroke-width="0.5"/>
<rect x="728.2" y="150.4" width="13" height="13" rx="2" fill="rgba(255,255,255,0.03)" stroke="rgba(255,255,255,0.05)" stroke-width="0.5"/>
<rect x="728.2" y="167.2" width="13" height="13" rx="2" fill="rgba(255,255,255,0.03)" stroke="rgba(255,255,255,0.05)" stroke-width="0.5"/>
<rect x="728.2" y="184" width="13" height="13" rx="2" fill="rgba(255,255,255,0.03)" stroke="rgba(255,255,255,0.05)" stroke-width="0.5"/>
<rect x="728.2" y="200.8" width="13" height="13" rx="2" fill="rgba(255,255,255,0.03)" stroke="rgba(255,255,255,0.05)" stroke-width="0.5"/>
<rect x="745" y="100" width="13" height="13" rx="2" fill="rgba(255,255,255,0.03)" stroke="rgba(255,255,255,0.05)" stroke-width="0.5"/>
<rect x="745" y="116.8" width="13" height="13" rx="2" fill="rgba(255,255,255,0.03)" stroke="rgba(255,255,255,0.05)" stroke-width="0.5"/>
<rect x="745" y="133.6" width="13" height="13" rx="2" fill="rgba(255,255,255,0.03)" stroke="rgba(255,255,255,0.05)" stroke-width="0.5"/>
<rect x="745" y="150.4" width="13" height="13" rx="2" fill="rgba(255,255,255,0.03)" stroke="rgba(255,255,255,0.05)" stroke-width="0.5"/>
<rect x="745" y="167.2" width="13" height="13" rx="2" fill="rgba(255,255,255,0.03)" stroke="rgba(255,255,255,0.05)" stroke-width="0.5"/>
<rect x="745" y="184" width="13" height="13" rx="2" fill="rgba(255,255,255,0.03)" stroke="rgba(255,255,255,0.05)" stroke-width="0.5"/>
<rect x="745" y="200.8" width="13" height="13" rx="2" fill="rgba(255,255,255,0.03)" stroke="rgba(255,255,255,0.05)" stroke-width="0.5"/>
<rect x="761.8000000000001" y="100" width="13" height="13" rx="2" fill="rgba(255,255,255,0.03)" stroke="rgba(255,255,255,0.05)" stroke-width="0.5"/>
<rect x="761.8000000000001" y="116.8" width="13" height="13" rx="2" fill="rgba(255,255,255,0.03)" stroke="rgba(255,255,255,0.05)" stroke-width="0.5"/>
<rect x="761.8000000000001" y="133.6" width="13" height="13" rx="2" fill="rgba(255,255,255,0.03)" stroke="rgba(255,255,255,0.05)" stroke-width="0.5"/>
<rect x="761.8000000000001" y="150.4" width="13" height="13" rx="2" fill="rgba(255,255,255,0.03)" stroke="rgba(255,255,255,0.05)" stroke-width="0.5"/>
<rect x="761.8000000000001" y="167.2" width="13" height="13" rx="2" fill="rgba(255,255,255,0.03)" stroke="rgba(255,255,255,0.05)" stroke-width="0.5"/>
<rect x="761.8000000000001" y="184" width="13" height="13" rx="2" fill="rgba(255,255,255,0.03)" stroke="rgba(255,255,255,0.05)" stroke-width="0.5"/>
<rect x="761.8000000000001" y="200.8" width="13" height="13" rx="2" fill="rgba(255,255,255,0.03)" stroke="rgba(255,255,255,0.05)" stroke-width="0.5"/>
<rect x="778.6" y="100" width="13" height="13" rx="2" fill="rgba(255,255,255,0.03)" stroke="rgba(255,255,255,0.05)" stroke-width="0.5"/>
<rect x="778.6" y="116.8" width="13" height="13" rx="2" fill="rgba(255,255,255,0.03)" stroke="rgba(255,255,255,0.05)" stroke-width="0.5"/>
<rect x="778.6" y="133.6" width="13" height="13" rx="2" fill="rgba(255,255,255,0.03)" stroke="rgba(255,255,255,0.05)" stroke-width="0.5"/>
<rect x="778.6" y="150.4" width="13" height="13" rx="2" fill="rgba(255,255,255,0.03)" stroke="rgba(255,255,255,0.05)" stroke-width="0.5"/>
<rect x="778.6" y="167.2" width="13" height="13" rx="2" fill="rgba(255,255,255,0.03)" stroke="rgba(255,255,255,0.05)" stroke-width="0.5"/>
<rect x="778.6" y="184" width="13" height="13" rx="2" fill="rgba(255,255,255,0.03)" stroke="rgba(255,255,255,0.05)" stroke-width="0.5"/>
<rect x="778.6" y="200.8" width="13" height="13" rx="2" fill="rgba(255,255,255,0.03)" stroke="rgba(255,255,255,0.05)" stroke-width="0.5"/>
<rect x="795.4" y="100" width="13" height="13" rx="2" fill="rgba(255,255,255,0.03)" stroke="rgba(255,255,255,0.05)" stroke-width="0.5"/>
<rect x="795.4" y="116.8" width="13" height="13" rx="2" fill="rgba(255,255,255,0.03)" stroke="rgba(255,255,255,0.05)" stroke-width="0.5"/>
<rect x="795.4" y="133.6" width="13" height="13" rx="2" fill="rgba(255,255,255,0.03)" stroke="rgba(255,255,255,0.05)" stroke-width="0.5"/>
<rect x="795.4" y="150.4" width="13" height="13" rx="2" fill="rgba(255,255,255,0.03)" stroke="rgba(255,255,255,0.05)" stroke-width="0.5"/>
<rect x="795.4" y="167.2" width="13" height="13" rx="2" fill="rgba(255,255,255,0.03)" stroke="rgba(255,255,255,0.05)" stroke-width="0.5"/>
<rect x="795.4" y="184" width="13" height="13" rx="2" fill="rgba(255,255,255,0.03)" stroke="rgba(255,255,255,0.05)" stroke-width="0.5"/>
<rect x="795.4" y="200.8" width="13" height="13" rx="2" fill="rgba(255,255,255,0.03)" stroke="rgba(255,255,255,0.05)" stroke-width="0.5"/>
<rect x="812.2" y="100" width="13" height="13" rx="2" fill="rgba(255,255,255,0.03)" stroke="rgba(255,255,255,0.05)" stroke-width="0.5"/>
<rect x="812.2" y="116.8" width="13" height="13" rx="2" fill="rgba(255,255,255,0.03)" stroke="rgba(255,255,255,0.05)" stroke-width="0.5"/>
<rect x="812.2" y="133.6" width="13" height="13" rx="2" fill="rgba(255,255,255,0.03)" stroke="rgba(255,255,255,0.05)" stroke-width="0.5"/>
<rect x="812.2" y="150.4" width="13" height="13" rx="2" fill="rgba(255,255,255,0.03)" stroke="rgba(255,255,255,0.05)" stroke-width="0.5"/>
<rect x="812.2" y="167.2" width="13" height="13" rx="2" fill="rgba(255,255,255,0.03)" stroke="rgba(255,255,255,0.05)" stroke-width="0.5"/>
<rect x="812.2" y="184" width="13" height="13" rx="2" fill="rgba(255,255,255,0.03)" stroke="rgba(255,255,255,0.05)" stroke-width="0.5"/>
<rect x="812.2" y="200.8" width="13" height="13" rx="2" fill="rgba(255,255,255,0.03)" stroke="rgba(255,255,255,0.05)" stroke-width="0.5"/>
<rect x="829" y="100" width="13" height="13" rx="2" fill="rgba(255,255,255,0.03)" stroke="rgba(255,255,255,0.05)" stroke-width="0.5"/>
<rect x="829" y="116.8" width="13" height="13" rx="2" fill="rgba(255,255,255,0.03)" stroke="rgba(255,255,255,0.05)" stroke-width="0.5"/>
<rect x="829" y="133.6" width="13" height="13" rx="2" fill="rgba(255,255,255,0.03)" stroke="rgba(255,255,255,0.05)" stroke-width="0.5"/>
<rect x="829" y="150.4" width="13" height="13" rx="2" fill="rgba(255,255,255,0.03)" stroke="rgba(255,255,255,0.05)" stroke-width="0.5"/>
<rect x="829" y="167.2" width="13" height="13" rx="2" fill="rgba(0, 240, 255, 0.75)"/>
<rect x="829" y="184" width="13" height="13" rx="2" fill="rgba(255,255,255,0.03)" stroke="rgba(255,255,255,0.05)" stroke-width="0.5"/>
<rect x="829" y="200.8" width="13" height="13" rx="2" fill="rgba(255,255,255,0.03)" stroke="rgba(255,255,255,0.05)" stroke-width="0.5"/>
<rect x="845.8000000000001" y="100" width="13" height="13" rx="2" fill="rgba(255,255,255,0.03)" stroke="rgba(255,255,255,0.05)" stroke-width="0.5"/>
<rect x="845.8000000000001" y="116.8" width="13" height="13" rx="2" fill="rgba(255,255,255,0.03)" stroke="rgba(255,255,255,0.05)" stroke-width="0.5"/>
<rect x="845.8000000000001" y="133.6" width="13" height="13" rx="2" fill="rgba(255,255,255,0.03)" stroke="rgba(255,255,255,0.05)" stroke-width="0.5"/>
<rect x="845.8000000000001" y="150.4" width="13" height="13" rx="2" fill="rgba(255,255,255,0.03)" stroke="rgba(255,255,255,0.05)" stroke-width="0.5"/>
<rect x="845.8000000000001" y="167.2" width="13" height="13" rx="2" fill="rgba(255, 255, 255, 0.45)"/>
<rect x="845.8000000000001" y="184" width="13" height="13" rx="2" fill="rgba(0, 240, 255, 0.75)"/>
<rect x="845.8000000000001" y="200.8" width="13" height="13" rx="2" fill="rgba(255,255,255,0.03)" stroke="rgba(255,255,255,0.05)" stroke-width="0.5"/>
<rect x="862.6" y="100" width="13" height="13" rx="2" fill="rgba(255,255,255,0.03)" stroke="rgba(255,255,255,0.05)" stroke-width="0.5"/>
<rect x="862.6" y="116.8" width="13" height="13" rx="2" fill="rgba(255,255,255,0.03)" stroke="rgba(255,255,255,0.05)" stroke-width="0.5"/>
<rect x="862.6" y="133.6" width="13" height="13" rx="2" fill="rgba(255,255,255,0.03)" stroke="rgba(255,255,255,0.05)" stroke-width="0.5"/>
<rect x="862.6" y="150.4" width="13" height="13" rx="2" fill="rgba(255,255,255,0.03)" stroke="rgba(255,255,255,0.05)" stroke-width="0.5"/>
<rect x="862.6" y="167.2" width="13" height="13" rx="2" fill="rgba(255,255,255,0.03)" stroke="rgba(255,255,255,0.05)" stroke-width="0.5"/>
<rect x="862.6" y="184" width="13" height="13" rx="2" fill="rgba(255,255,255,0.03)" stroke="rgba(255,255,255,0.05)" stroke-width="0.5"/>
<rect x="862.6" y="200.8" width="13" height="13" rx="2" fill="rgba(255,255,255,0.03)" stroke="rgba(255,255,255,0.05)" stroke-width="0.5"/>
<rect x="879.4" y="100" width="13" height="13" rx="2" fill="rgba(255,255,255,0.03)" stroke="rgba(255,255,255,0.05)" stroke-width="0.5"/>
<rect x="879.4" y="116.8" width="13" height="13" rx="2" fill="rgba(255,255,255,0.03)" stroke="rgba(255,255,255,0.05)" stroke-width="0.5"/>
<rect x="879.4" y="133.6" width="13" height="13" rx="2" fill="rgba(255,255,255,0.03)" stroke="rgba(255,255,255,0.05)" stroke-width="0.5"/>
<rect x="879.4" y="150.4" width="13" height="13" rx="2" fill="rgba(255,255,255,0.03)" stroke="rgba(255,255,255,0.05)" stroke-width="0.5"/>
<rect x="879.4" y="167.2" width="13" height="13" rx="2" fill="rgba(255,255,255,0.03)" stroke="rgba(255,255,255,0.05)" stroke-width="0.5"/>
<rect x="879.4" y="184" width="13" height="13" rx="2" fill="rgba(255,255,255,0.03)" stroke="rgba(255,255,255,0.05)" stroke-width="0.5"/>
<rect x="879.4" y="200.8" width="13" height="13" rx="2" fill="rgba(255,255,255,0.03)" stroke="rgba(255,255,255,0.05)" stroke-width="0.5"/>
<rect x="896.2" y="100" width="13" height="13" rx="2" fill="rgba(255,255,255,0.03)" stroke="rgba(255,255,255,0.05)" stroke-width="0.5"/>
<rect x="896.2" y="116.8" width="13" height="13" rx="2" fill="rgba(255,255,255,0.03)" stroke="rgba(255,255,255,0.05)" stroke-width="0.5"/>
<rect x="896.2" y="133.6" width="13" height="13" rx="2" fill="rgba(255,255,255,0.03)" stroke="rgba(255,255,255,0.05)" stroke-width="0.5"/>
<rect x="896.2" y="150.4" width="13" height="13" rx="2" fill="rgba(255,255,255,0.03)" stroke="rgba(255,255,255,0.05)" stroke-width="0.5"/>
<rect x="896.2" y="167.2" width="13" height="13" rx="2" fill="rgba(255,255,255,0.03)" stroke="rgba(255,255,255,0.05)" stroke-width="0.5"/>
<rect x="896.2" y="184" width="13" height="13" rx="2" fill="rgba(255,255,255,0.03)" stroke="rgba(255,255,255,0.05)" stroke-width="0.5"/>
<rect x="896.2" y="200.8" width="13" height="13" rx="2" fill="rgba(255,255,255,0.03)" stroke="rgba(255,255,255,0.05)" stroke-width="0.5"/>
<rect x="913" y="100" width="13" height="13" rx="2" fill="rgba(255,255,255,0.03)" stroke="rgba(255,255,255,0.05)" stroke-width="0.5"/>
<rect x="913" y="116.8" width="13" height="13" rx="2" fill="rgba(255,255,255,0.03)" stroke="rgba(255,255,255,0.05)" stroke-width="0.5"/>
<rect x="913" y="133.6" width="13" height="13" rx="2" fill="rgba(255,255,255,0.03)" stroke="rgba(255,255,255,0.05)" stroke-width="0.5"/>
<rect x="913" y="150.4" width="13" height="13" rx="2" fill="rgba(255,255,255,0.03)" stroke="rgba(255,255,255,0.05)" stroke-width="0.5"/>
<rect x="913" y="167.2" width="13" height="13" rx="2" fill="rgba(255,255,255,0.03)" stroke="rgba(255,255,255,0.05)" stroke-width="0.5"/>
<rect x="913" y="184" width="13" height="13" rx="2" fill="rgba(255,255,255,0.03)" stroke="rgba(255,255,255,0.05)" stroke-width="0.5"/>
<rect x="913" y="200.8" width="13" height="13" rx="2" fill="rgba(255,255,255,0.03)" stroke="rgba(255,255,255,0.05)" stroke-width="0.5"/>
<rect x="929.8000000000001" y="100" width="13" height="13" rx="2" fill="rgba(255,255,255,0.03)" stroke="rgba(255,255,255,0.05)" stroke-width="0.5"/>
<rect x="929.8000000000001" y="116.8" width="13" height="13" rx="2" fill="rgba(255,255,255,0.03)" stroke="rgba(255,255,255,0.05)" stroke-width="0.5"/>
<rect x="929.8000000000001" y="133.6" width="13" height="13" rx="2" fill="rgba(255,255,255,0.03)" stroke="rgba(255,255,255,0.05)" stroke-width="0.5"/>
<rect x="929.8000000000001" y="150.4" width="13" height="13" rx="2" fill="rgba(0, 240, 255, 0.75)"/>
<rect x="929.8000000000001" y="167.2" width="13" height="13" rx="2" fill="rgba(255,255,255,0.03)" stroke="rgba(255,255,255,0.05)" stroke-width="0.5"/>
<rect x="929.8000000000001" y="184" width="13" height="13" rx="2" fill="rgba(255,255,255,0.03)" stroke="rgba(255,255,255,0.05)" stroke-width="0.5"/>
<rect x="929.8000000000001" y="200.8" width="13" height="13" rx="2" fill="rgba(255,255,255,0.03)" stroke="rgba(255,255,255,0.05)" stroke-width="0.5"/>
<rect x="946.6" y="100" width="13" height="13" rx="2" fill="rgba(255,255,255,0.03)" stroke="rgba(255,255,255,0.05)" stroke-width="0.5"/>
<rect x="946.6" y="116.8" width="13" height="13" rx="2" fill="rgba(255,255,255,0.03)" stroke="rgba(255,255,255,0.05)" stroke-width="0.5"/>
<rect x="946.6" y="133.6" width="13" height="13" rx="2" fill="rgba(255,255,255,0.03)" stroke="rgba(255,255,255,0.05)" stroke-width="0.5"/>
<rect x="946.6" y="150.4" width="13" height="13" rx="2" fill="rgba(255,255,255,0.03)" stroke="rgba(255,255,255,0.05)" stroke-width="0.5"/>
<rect x="946.6" y="167.2" width="13" height="13" rx="2" fill="rgba(255,255,255,0.03)" stroke="rgba(255,255,255,0.05)" stroke-width="0.5"/>
<rect x="946.6" y="184" width="13" height="13" rx="2" fill="rgba(255,255,255,0.03)" stroke="rgba(255,255,255,0.05)" stroke-width="0.5"/>
<rect x="946.6" y="200.8" width="13" height="13" rx="2" fill="rgba(255,255,255,0.03)" stroke="rgba(255,255,255,0.05)" stroke-width="0.5"/>
<rect x="963.4000000000001" y="100" width="13" height="13" rx="2" fill="rgba(255,255,255,0.03)" stroke="rgba(255,255,255,0.05)" stroke-width="0.5"/>
<rect x="963.4000000000001" y="116.8" width="13" height="13" rx="2" fill="rgba(255,255,255,0.03)" stroke="rgba(255,255,255,0.05)" stroke-width="0.5"/>
<rect x="963.4000000000001" y="133.6" width="13" height="13" rx="2" fill="rgba(255,255,255,0.03)" stroke="rgba(255,255,255,0.05)" stroke-width="0.5"/>
<rect x="963.4000000000001" y="150.4" width="13" height="13" rx="2" fill="rgba(255,255,255,0.03)" stroke="rgba(255,255,255,0.05)" stroke-width="0.5"/>
<rect x="963.4000000000001" y="167.2" width="13" height="13" rx="2" fill="rgba(255,255,255,0.03)" stroke="rgba(255,255,255,0.05)" stroke-width="0.5"/>
<rect x="963.4000000000001" y="184" width="13" height="13" rx="2" fill="rgba(255,255,255,0.03)" stroke="rgba(255,255,255,0.05)" stroke-width="0.5"/>
<rect x="963.4000000000001" y="200.8" width="13" height="13" rx="2" fill="rgba(255,255,255,0.03)" stroke="rgba(255,255,255,0.05)" stroke-width="0.5"/>
<rect x="980.2" y="100" width="13" height="13" rx="2" fill="rgba(255,255,255,0.03)" stroke="rgba(255,255,255,0.05)" stroke-width="0.5"/>
<rect x="980.2" y="116.8" width="13" height="13" rx="2" fill="rgba(255,255,255,0.03)" stroke="rgba(255,255,255,0.05)" stroke-width="0.5"/>
<rect x="980.2" y="133.6" width="13" height="13" rx="2" fill="rgba(255,255,255,0.03)" stroke="rgba(255,255,255,0.05)" stroke-width="0.5"/>
<rect x="980.2" y="150.4" width="13" height="13" rx="2" fill="rgba(255,255,255,0.03)" stroke="rgba(255,255,255,0.05)" stroke-width="0.5"/>
<rect x="980.2" y="167.2" width="13" height="13" rx="2" fill="rgba(255,255,255,0.03)" stroke="rgba(255,255,255,0.05)" stroke-width="0.5"/>
<rect x="980.2" y="184" width="13" height="13" rx="2" fill="rgba(255,255,255,0.03)" stroke="rgba(255,255,255,0.05)" stroke-width="0.5"/>
<rect x="980.2" y="200.8" width="13" height="13" rx="2" fill="#00f0ff" class="node-high"/>
<rect x="997" y="100" width="13" height="13" rx="2" fill="rgba(0, 240, 255, 0.75)"/>
<rect x="997" y="116.8" width="13" height="13" rx="2" fill="rgba(255,255,255,0.03)" stroke="rgba(255,255,255,0.05)" stroke-width="0.5"/>
<rect x="997" y="133.6" width="13" height="13" rx="2" fill="rgba(255,255,255,0.03)" stroke="rgba(255,255,255,0.05)" stroke-width="0.5"/>
<rect x="997" y="150.4" width="13" height="13" rx="2" fill="#00f0ff" class="node-high"/>
<rect x="997" y="167.2" width="13" height="13" rx="2" fill="rgba(0, 240, 255, 0.75)"/>
<rect x="997" y="184" width="13" height="13" rx="2" fill="rgba(0, 240, 255, 0.75)"/>
<rect x="997" y="200.8" width="13" height="13" rx="2" fill="rgba(255,255,255,0.03)" stroke="rgba(255,255,255,0.05)" stroke-width="0.5"/>
<rect x="1013.8000000000001" y="100" width="13" height="13" rx="2" fill="rgba(255,255,255,0.03)" stroke="rgba(255,255,255,0.05)" stroke-width="0.5"/>
<rect x="1013.8000000000001" y="116.8" width="13" height="13" rx="2" fill="rgba(255,255,255,0.03)" stroke="rgba(255,255,255,0.05)" stroke-width="0.5"/>
<rect x="1013.8000000000001" y="133.6" width="13" height="13" rx="2" fill="rgba(255,255,255,0.03)" stroke="rgba(255,255,255,0.05)" stroke-width="0.5"/>
<rect x="1013.8000000000001" y="150.4" width="13" height="13" rx="2" fill="rgba(255,255,255,0.03)" stroke="rgba(255,255,255,0.05)" stroke-width="0.5"/>
<rect x="1013.8000000000001" y="167.2" width="13" height="13" rx="2" fill="rgba(255,255,255,0.03)" stroke="rgba(255,255,255,0.05)" stroke-width="0.5"/>
<rect x="1013.8000000000001" y="184" width="13" height="13" rx="2" fill="rgba(255,255,255,0.03)" stroke="rgba(255,255,255,0.05)" stroke-width="0.5"/>
<rect x="1013.8000000000001" y="200.8" width="13" height="13" rx="2" fill="rgba(255,255,255,0.03)" stroke="rgba(255,255,255,0.05)" stroke-width="0.5"/>
<rect x="1030.6" y="100" width="13" height="13" rx="2" fill="rgba(255,255,255,0.03)" stroke="rgba(255,255,255,0.05)" stroke-width="0.5"/>
<rect x="1030.6" y="116.8" width="13" height="13" rx="2" fill="#00f0ff" class="node-high"/>
<rect x="1030.6" y="133.6" width="13" height="13" rx="2" fill="rgba(255,255,255,0.03)" stroke="rgba(255,255,255,0.05)" stroke-width="0.5"/>
<rect x="1030.6" y="150.4" width="13" height="13" rx="2" fill="rgba(255,255,255,0.03)" stroke="rgba(255,255,255,0.05)" stroke-width="0.5"/>
<rect x="1030.6" y="167.2" width="13" height="13" rx="2" fill="rgba(255,255,255,0.03)" stroke="rgba(255,255,255,0.05)" stroke-width="0.5"/>
<rect x="1030.6" y="184" width="13" height="13" rx="2" fill="rgba(255,255,255,0.03)" stroke="rgba(255,255,255,0.05)" stroke-width="0.5"/>
<rect x="1030.6" y="200.8" width="13" height="13" rx="2" fill="rgba(255,255,255,0.03)" stroke="rgba(255,255,255,0.05)" stroke-width="0.5"/>
<g class="sweep-bar">
<line x1="0" y1="86" x2="0" y2="227.8" stroke="#00f0ff" stroke-opacity="0.8" stroke-width="1.0"/>
<rect x="-28" y="86" width="28" height="141.8" fill="url(#calSweepGrad)"/>
</g>
</g><path width="1200" height="320" clip-path="url(#satori_bc-id)" fill="none" stroke="#1a2332" stroke-width="2" d="M1.7569999999999997,1.7569999999999997 A6,6 0 0 1 6,0 h1188 a6,6 0 0 1 6,6 v308 a6,6 0 0 1 -6,6 h-1188 a6,6 0 0 1 -6,-6 v-308 A6,6 0 0 1 1.7569999999999997,1.7569999999999997"/><mask id="satori_om-id-0"><rect x="57" y="33" width="1086" height="15" fill="#fff" mask="url(#satori_om-id)"/></mask><mask id="satori_om-id-0-0"><rect x="57" y="35" width="256" height="13" fill="#fff" mask="url(#satori_om-id)"/></mask><mask id="satori_om-id-0-0-0"><rect x="57" y="35" width="68" height="13" fill="#fff" mask="url(#satori_om-id)"/></mask><g mask="url(#satori_om-id)" clip-path="url(#satori_cp-id)"><path fill="#e2f9ff" d="M58.8 46L57.3 46L60.1 38.0L61.9 38.0L64.7 46L63.2 46L62.5 44.0L59.5 44.0L58.8 46ZM59.9 42.9L62.1 42.9L61.7 41.8Q61.5 41.2 61.3 40.4L61.3 40.4Q61.1 39.8 61.0 39.1L61.0 39.1Q60.8 39.8 60.6 40.4L60.6 40.4Q60.4 41.2 60.2 41.8L60.2 41.8L59.9 42.9ZM71.0 46.1L71.0 46.1Q69.9 46.1 69.1 45.6Q68.3 45.1 67.8 44.2Q67.3 43.3 67.3 42.0L67.3 42.0Q67.3 40.7 67.8 39.8Q68.3 38.9 69.1 38.4Q69.9 37.9 71.0 37.9L71.0 37.9Q71.6 37.9 72.2 38.1Q72.8 38.3 73.2 38.6Q73.7 39.0 74.0 39.5Q74.3 40.0 74.4 40.7L74.4 40.7L72.9 40.7Q72.8 40.3 72.7 40.0Q72.5 39.8 72.3 39.6Q72.0 39.4 71.7 39.3Q71.4 39.2 71.0 39.2L71.0 39.2Q70.4 39.2 69.8 39.5Q69.3 39.8 69.0 40.5Q68.8 41.1 68.8 42.0L68.8 42.0Q68.8 42.9 69.1 43.6Q69.3 44.2 69.8 44.5Q70.4 44.8 71.0 44.8L71.0 44.8Q71.4 44.8 71.7 44.7Q72.0 44.6 72.2 44.4Q72.5 44.2 72.7 44.0Q72.8 43.7 72.9 43.3L72.9 43.3L74.4 43.3Q74.3 43.9 74.0 44.4Q73.7 44.9 73.3 45.3Q72.9 45.7 72.3 45.9Q71.7 46.1 71.0 46.1ZM80.0 39.2L77.5 39.2L77.5 38.0L83.9 38.0L83.9 39.2L81.4 39.2L81.4 46L80.0 46L80.0 39.2ZM87.3 38.0L88.8 38.0L88.8 46L87.3 46L87.3 38.0ZM96.7 46L94.9 46L92.0 38.0L93.6 38.0L95.0 42.2Q95.2 42.8 95.5 43.6L95.5 43.6Q95.6 44.2 95.8 44.9L95.8 44.9Q96.0 44.2 96.2 43.6L96.2 43.6Q96.4 42.8 96.6 42.2L96.6 42.2L98.0 38.0L99.5 38.0L96.7 46ZM102.8 38.0L104.2 38.0L104.2 46L102.8 46L102.8 38.0ZM110.1 39.2L107.7 39.2L107.7 38.0L114.0 38.0L114.0 39.2L111.6 39.2L111.6 46L110.1 46L110.1 39.2ZM121.5 46L120.1 46L120.1 42.9L117.1 38.0L118.8 38.0L120.2 40.5Q120.4 40.9 120.6 41.3L120.6 41.3Q120.7 41.5 120.8 41.7L120.8 41.7Q120.9 41.5 121.0 41.3L121.0 41.3Q121.1 40.9 121.3 40.5L121.3 40.5L122.7 38.0L124.4 38.0L121.5 42.9L121.5 46Z "/></g><mask id="satori_om-id-0-0-1"><rect x="145" y="35" width="168" height="13" fill="#fff" mask="url(#satori_om-id)"/></mask><g mask="url(#satori_om-id)" clip-path="url(#satori_cp-id)"><path fill="#50627a" d="M149.4 44.4L145.6 44.4L145.6 43.5L149.1 38.0L150.4 38.0L150.4 43.5L151.5 43.5L151.5 44.4L150.4 44.4L150.4 46L149.4 46L149.4 44.4ZM146.7 43.5L149.4 43.5L149.4 39.3L149.4 39.3L146.7 43.4L146.7 43.5ZM154.4 38.0L155.6 38.0L155.6 46L154.6 46L154.6 38.9L154.6 38.9L152.6 40.4L152.6 39.3L154.4 38.0Z M163.2 46.1L163.2 46.1Q162.4 46.1 161.8 45.7Q161.1 45.4 160.8 44.7Q160.5 44.0 160.5 43.0L160.5 43.0Q160.5 42.1 160.8 41.4Q161.1 40.7 161.8 40.3Q162.4 39.9 163.2 39.9L163.2 39.9Q163.6 39.9 164.0 40.0Q164.4 40.1 164.7 40.4Q165.0 40.6 165.3 40.9Q165.5 41.2 165.6 41.6L165.6 41.6L164.7 41.8Q164.6 41.6 164.5 41.4Q164.4 41.2 164.2 41.1Q164.0 40.9 163.7 40.9Q163.5 40.8 163.2 40.8L163.2 40.8Q162.6 40.8 162.2 41.1Q161.8 41.4 161.6 41.9Q161.4 42.4 161.4 43.0L161.4 43.0Q161.4 43.6 161.6 44.1Q161.8 44.6 162.2 45.0Q162.6 45.3 163.2 45.3L163.2 45.3Q163.5 45.3 163.7 45.2Q164.0 45.1 164.2 45.0Q164.4 44.8 164.5 44.6Q164.7 44.4 164.7 44.2L164.7 44.2L165.6 44.4Q165.5 44.8 165.3 45.1Q165.1 45.5 164.7 45.7Q164.4 45.9 164.0 46.0Q163.6 46.1 163.2 46.1ZM169.7 46.1L169.7 46.1Q168.9 46.1 168.3 45.7Q167.6 45.4 167.3 44.7Q167.0 44.0 167.0 43.0L167.0 43.0Q167.0 42.1 167.3 41.4Q167.6 40.7 168.3 40.3Q168.9 39.9 169.7 39.9L169.7 39.9Q170.5 39.9 171.1 40.3Q171.8 40.7 172.1 41.4Q172.4 42.1 172.4 43.0L172.4 43.0Q172.4 44.0 172.1 44.7Q171.8 45.4 171.1 45.7Q170.5 46.1 169.7 46.1ZM169.7 45.3L169.7 45.3Q170.3 45.3 170.7 45.0Q171.1 44.6 171.3 44.1Q171.5 43.6 171.5 43.0L171.5 43.0Q171.5 42.4 171.3 41.9Q171.1 41.4 170.7 41.1Q170.3 40.8 169.7 40.8L169.7 40.8Q169.1 40.8 168.7 41.1Q168.3 41.4 168.1 41.9Q167.9 42.4 167.9 43.0L167.9 43.0Q167.9 43.6 168.1 44.1Q168.3 44.6 168.7 45.0Q169.1 45.3 169.7 45.3ZM175.0 42.4L175.0 42.4L175.0 46L174.1 46L174.1 40.0L175.0 40.0L175.0 41.1Q175.3 40.5 175.7 40.3L175.7 40.3Q176.2 39.9 176.8 39.9L176.8 39.9Q177.4 39.9 177.9 40.2Q178.4 40.4 178.6 40.9Q178.9 41.4 178.9 42.2L178.9 42.2L178.9 46L177.9 46L177.9 42.3Q177.9 41.6 177.5 41.2Q177.2 40.8 176.5 40.8L176.5 40.8Q176.1 40.8 175.8 41.0Q175.4 41.2 175.2 41.5Q175.0 41.9 175.0 42.4ZM181.9 40.0L183.1 40.0L183.1 40.8L181.9 40.8L181.9 44.4Q181.9 44.8 182.1 45.0Q182.2 45.2 182.6 45.2L182.6 45.2Q182.7 45.2 182.9 45.2Q183.0 45.2 183.1 45.2L183.1 45.2L183.3 46.0Q183.2 46.0 183.0 46.0Q182.8 46.1 182.6 46.1L182.6 46.1Q181.8 46.1 181.4 45.7Q180.9 45.3 180.9 44.5L180.9 44.5L180.9 40.8L180.0 40.8L180.0 40.0L180.9 40.0L180.9 38.6L181.9 38.6L181.9 40.0ZM185.6 46L184.6 46L184.6 40.0L185.5 40.0L185.5 40.9L185.6 40.9Q185.8 40.5 186.2 40.2Q186.6 39.9 187.2 39.9L187.2 39.9Q187.3 39.9 187.4 39.9Q187.6 39.9 187.7 39.9L187.7 39.9L187.7 40.9Q187.6 40.9 187.4 40.9Q187.3 40.8 187.1 40.8L187.1 40.8Q186.6 40.8 186.3 41.0Q186.0 41.2 185.8 41.5Q185.6 41.8 185.6 42.2L185.6 42.2L185.6 46ZM190.0 46L189.1 46L189.1 40.0L190.0 40.0L190.0 46ZM189.6 39.0L189.6 39.0Q189.3 39.0 189.1 38.8Q188.9 38.6 188.9 38.4L188.9 38.4Q188.9 38.1 189.1 37.9Q189.3 37.7 189.6 37.7L189.6 37.7Q189.8 37.7 190.0 37.9Q190.2 38.1 190.2 38.4L190.2 38.4Q190.2 38.6 190.0 38.8Q189.8 39.0 189.6 39.0ZM194.7 46.1L194.7 46.1Q194.2 46.1 193.8 45.9Q193.5 45.7 193.3 45.5Q193.1 45.2 193.0 45.1L193.0 45.1L192.9 45.1L192.9 46L192.0 46L192.0 38.0L192.9 38.0L192.9 41.0L193.0 41.0Q193.1 40.8 193.3 40.6Q193.5 40.3 193.8 40.1Q194.2 39.9 194.7 39.9L194.7 39.9Q195.5 39.9 196.1 40.3Q196.6 40.7 197.0 41.4Q197.3 42.1 197.3 43.0L197.3 43.0Q197.3 44.0 197.0 44.7Q196.6 45.4 196.1 45.7Q195.5 46.1 194.7 46.1ZM194.6 45.3L194.6 45.3Q195.2 45.3 195.5 45.0Q195.9 44.7 196.1 44.1Q196.3 43.6 196.3 43.0L196.3 43.0Q196.3 42.4 196.1 41.9Q195.9 41.4 195.5 41.1Q195.2 40.8 194.6 40.8L194.6 40.8Q194.0 40.8 193.7 41.1Q193.3 41.3 193.1 41.8Q192.9 42.3 192.9 43.0L192.9 43.0Q192.9 43.7 193.1 44.2Q193.3 44.7 193.7 45.0Q194.1 45.3 194.6 45.3ZM200.9 46.1L200.9 46.1Q200.3 46.1 199.9 45.8Q199.4 45.6 199.2 45.1Q198.9 44.6 198.9 43.8L198.9 43.8L198.9 40.0L199.9 40.0L199.9 43.7Q199.9 44.4 200.2 44.8Q200.6 45.2 201.2 45.2L201.2 45.2Q201.7 45.2 202.0 45.0Q202.4 44.8 202.5 44.5Q202.7 44.1 202.7 43.6L202.7 43.6L202.7 40.0L203.7 40.0L203.7 46L202.8 46L202.8 44.9Q202.5 45.5 202.1 45.7L202.1 45.7Q201.6 46.1 200.9 46.1ZM206.8 40.0L208.0 40.0L208.0 40.8L206.8 40.8L206.8 44.4Q206.8 44.8 206.9 45.0Q207.1 45.2 207.5 45.2L207.5 45.2Q207.6 45.2 207.7 45.2Q207.9 45.2 208.0 45.2L208.0 45.2L208.2 46.0Q208.0 46.0 207.8 46.0Q207.6 46.1 207.4 46.1L207.4 46.1Q206.7 46.1 206.2 45.7Q205.8 45.3 205.8 44.5L205.8 44.5L205.8 40.8L204.9 40.8L204.9 40.0L205.8 40.0L205.8 38.6L206.8 38.6L206.8 40.0ZM210.4 46L209.5 46L209.5 40.0L210.4 40.0L210.4 46ZM209.9 39.0L209.9 39.0Q209.7 39.0 209.5 38.8Q209.3 38.6 209.3 38.4L209.3 38.4Q209.3 38.1 209.5 37.9Q209.7 37.7 209.9 37.7L209.9 37.7Q210.2 37.7 210.4 37.9Q210.6 38.1 210.6 38.4L210.6 38.4Q210.6 38.6 210.4 38.8Q210.2 39.0 209.9 39.0ZM214.8 46.1L214.8 46.1Q214.0 46.1 213.4 45.7Q212.7 45.4 212.4 44.7Q212.1 44.0 212.1 43.0L212.1 43.0Q212.1 42.1 212.4 41.4Q212.7 40.7 213.4 40.3Q214.0 39.9 214.8 39.9L214.8 39.9Q215.6 39.9 216.2 40.3Q216.8 40.7 217.2 41.4Q217.5 42.1 217.5 43.0L217.5 43.0Q217.5 44.0 217.2 44.7Q216.8 45.4 216.2 45.7Q215.6 46.1 214.8 46.1ZM214.8 45.3L214.8 45.3Q215.4 45.3 215.8 45.0Q216.2 44.6 216.4 44.1Q216.6 43.6 216.6 43.0L216.6 43.0Q216.6 42.4 216.4 41.9Q216.2 41.4 215.8 41.1Q215.4 40.8 214.8 40.8L214.8 40.8Q214.2 40.8 213.8 41.1Q213.4 41.4 213.2 41.9Q213.0 42.4 213.0 43.0L213.0 43.0Q213.0 43.6 213.2 44.1Q213.4 44.6 213.8 45.0Q214.2 45.3 214.8 45.3ZM220.1 42.4L220.1 42.4L220.1 46L219.2 46L219.2 40.0L220.1 40.0L220.1 41.1Q220.3 40.5 220.7 40.3L220.7 40.3Q221.2 39.9 221.9 39.9L221.9 39.9Q222.5 39.9 223.0 40.2Q223.4 40.4 223.7 40.9Q224.0 41.4 224.0 42.2L224.0 42.2L224.0 46L223.0 46L223.0 42.3Q223.0 41.6 222.6 41.2Q222.3 40.8 221.6 40.8L221.6 40.8Q221.2 40.8 220.9 41.0Q220.5 41.2 220.3 41.5Q220.1 41.9 220.1 42.4ZM227.9 46.1L227.9 46.1Q227.3 46.1 226.8 45.9Q226.3 45.8 226.0 45.4Q225.7 45.1 225.6 44.5L225.6 44.5L226.5 44.3Q226.7 44.8 227.0 45.0Q227.4 45.3 227.9 45.3L227.9 45.3Q228.5 45.3 228.9 45.0Q229.3 44.7 229.3 44.4L229.3 44.4Q229.3 44.1 229.1 43.9Q228.8 43.6 228.4 43.5L228.4 43.5L227.4 43.3Q226.6 43.1 226.2 42.7Q225.8 42.3 225.8 41.7L225.8 41.7Q225.8 41.2 226.1 40.8Q226.4 40.4 226.9 40.1Q227.4 39.9 228.0 39.9L228.0 39.9Q228.6 39.9 229.1 40.1Q229.5 40.3 229.8 40.6Q230.0 40.9 230.2 41.4L230.2 41.4L229.3 41.6Q229.2 41.3 228.9 41.0Q228.6 40.7 228.0 40.7L228.0 40.7Q227.5 40.7 227.1 41.0Q226.8 41.2 226.8 41.6L226.8 41.6Q226.8 41.9 227.0 42.1Q227.2 42.3 227.8 42.5L227.8 42.5L228.7 42.7Q229.5 42.9 229.9 43.3Q230.3 43.7 230.3 44.3L230.3 44.3Q230.3 44.8 230.0 45.2Q229.7 45.7 229.2 45.9Q228.6 46.1 227.9 46.1Z M236.0 46L235.0 46L235.0 40.0L236.0 40.0L236.0 46ZM235.5 39.0L235.5 39.0Q235.2 39.0 235.0 38.8Q234.8 38.6 234.8 38.4L234.8 38.4Q234.8 38.1 235.0 37.9Q235.2 37.7 235.5 37.7L235.5 37.7Q235.8 37.7 236.0 37.9Q236.2 38.1 236.2 38.4L236.2 38.4Q236.2 38.6 236.0 38.8Q235.8 39.0 235.5 39.0ZM238.8 42.4L238.8 42.4L238.8 46L237.9 46L237.9 40.0L238.8 40.0L238.8 41.1Q239.1 40.5 239.5 40.3L239.5 40.3Q240.0 39.9 240.7 39.9L240.7 39.9Q241.3 39.9 241.7 40.2Q242.2 40.4 242.4 40.9Q242.7 41.4 242.7 42.2L242.7 42.2L242.7 46L241.7 46L241.7 42.3Q241.7 41.6 241.4 41.2Q241.0 40.8 240.4 40.8L240.4 40.8Q239.9 40.8 239.6 41.0Q239.2 41.2 239.0 41.5Q238.8 41.9 238.8 42.4Z M248.8 40.0L250.1 40.0L250.1 40.8L248.8 40.8L248.8 44.4Q248.8 44.8 249.0 45.0Q249.1 45.2 249.5 45.2L249.5 45.2Q249.6 45.2 249.8 45.2Q249.9 45.2 250.0 45.2L250.0 45.2L250.2 46.0Q250.1 46.0 249.9 46.0Q249.7 46.1 249.5 46.1L249.5 46.1Q248.7 46.1 248.3 45.7Q247.9 45.3 247.9 44.5L247.9 44.5L247.9 40.8L247.0 40.8L247.0 40.0L247.9 40.0L247.9 38.6L248.8 38.6L248.8 40.0ZM252.5 42.4L252.5 42.4L252.5 46L251.5 46L251.5 38.0L252.5 38.0L252.5 41.0Q252.7 40.5 253.1 40.3L253.1 40.3Q253.6 39.9 254.3 39.9L254.3 39.9Q254.9 39.9 255.3 40.2Q255.8 40.4 256.1 40.9Q256.3 41.4 256.3 42.2L256.3 42.2L256.3 46L255.3 46L255.3 42.3Q255.3 41.6 255.0 41.2Q254.6 40.8 254.0 40.8L254.0 40.8Q253.6 40.8 253.2 41.0Q252.9 41.2 252.7 41.5Q252.5 41.9 252.5 42.4ZM260.8 46.1L260.8 46.1Q259.9 46.1 259.3 45.7Q258.6 45.4 258.3 44.7Q257.9 44.0 257.9 43.0Q257.9 42.1 258.3 41.4Q258.6 40.7 259.2 40.3Q259.8 39.9 260.6 39.9L260.6 39.9Q261.1 39.9 261.6 40.1Q262.1 40.2 262.4 40.6Q262.8 40.9 263.0 41.5Q263.3 42.1 263.3 42.9L263.3 42.9L263.3 43.3L258.9 43.3Q258.9 43.9 259.2 44.3L259.2 44.3Q259.4 44.8 259.8 45.0Q260.2 45.3 260.8 45.3L260.8 45.3Q261.1 45.3 261.4 45.2Q261.7 45.1 261.9 44.9Q262.1 44.7 262.2 44.3L262.2 44.3L263.2 44.6Q263.0 45.1 262.7 45.4Q262.4 45.7 261.9 45.9Q261.4 46.1 260.8 46.1ZM258.9 42.5L258.9 42.5L262.3 42.5Q262.2 42.1 262.1 41.8L262.1 41.8Q261.9 41.3 261.6 41.0Q261.2 40.8 260.6 40.8Q260.1 40.8 259.7 41.0Q259.3 41.3 259.1 41.7L259.1 41.7Q259.0 42.1 258.9 42.5Z M268.0 38.0L268.9 38.0L268.9 46L268.0 46L268.0 38.0ZM272.5 46.1L272.5 46.1Q272.0 46.1 271.5 45.9Q271.0 45.7 270.8 45.3Q270.5 44.9 270.5 44.3L270.5 44.3Q270.5 43.8 270.7 43.5Q270.9 43.1 271.2 42.9Q271.6 42.8 272.0 42.7Q272.4 42.6 272.8 42.5L272.8 42.5Q273.4 42.5 273.7 42.4Q274.0 42.4 274.2 42.3Q274.4 42.2 274.4 42.0L274.4 42.0L274.4 41.9Q274.4 41.6 274.2 41.3Q274.1 41.0 273.8 40.9Q273.5 40.8 273.1 40.8L273.1 40.8Q272.7 40.8 272.4 40.9Q272.1 41.0 271.9 41.2Q271.7 41.4 271.6 41.6L271.6 41.6L270.7 41.3Q270.9 40.8 271.3 40.5Q271.7 40.2 272.1 40.0Q272.6 39.9 273.1 39.9L273.1 39.9Q273.4 39.9 273.8 40.0Q274.1 40.1 274.5 40.3Q274.9 40.5 275.1 40.9Q275.3 41.3 275.3 42.0L275.3 42.0L275.3 46L274.4 46L274.4 45.2L274.3 45.2Q274.2 45.4 274.0 45.6Q273.8 45.8 273.4 46.0Q273.0 46.1 272.5 46.1ZM272.7 45.3L272.7 45.3Q273.2 45.3 273.6 45.1Q274.0 44.9 274.2 44.5Q274.4 44.2 274.4 43.8L274.4 43.8L274.4 43.0Q274.3 43.1 274.1 43.1Q273.9 43.2 273.6 43.2Q273.4 43.3 273.2 43.3Q272.9 43.3 272.8 43.3L272.8 43.3Q272.4 43.4 272.1 43.5Q271.8 43.6 271.6 43.8Q271.5 44.0 271.5 44.3L271.5 44.3Q271.5 44.7 271.6 44.9Q271.8 45.1 272.1 45.2Q272.3 45.3 272.7 45.3ZM279.3 46.1L279.3 46.1Q278.7 46.1 278.2 45.9Q277.7 45.8 277.4 45.4Q277.1 45.1 277.0 44.5L277.0 44.5L277.9 44.3Q278.0 44.8 278.4 45.0Q278.7 45.3 279.3 45.3L279.3 45.3Q279.9 45.3 280.3 45.0Q280.6 44.7 280.6 44.4L280.6 44.4Q280.6 44.1 280.4 43.9Q280.2 43.6 279.8 43.5L279.8 43.5L278.8 43.3Q278.0 43.1 277.6 42.7Q277.2 42.3 277.2 41.7L277.2 41.7Q277.2 41.2 277.4 40.8Q277.7 40.4 278.2 40.1Q278.7 39.9 279.4 39.9L279.4 39.9Q280.0 39.9 280.4 40.1Q280.9 40.3 281.1 40.6Q281.4 40.9 281.5 41.4L281.5 41.4L280.7 41.6Q280.5 41.3 280.3 41.0Q280.0 40.7 279.4 40.7L279.4 40.7Q278.8 40.7 278.5 41.0Q278.1 41.2 278.1 41.6L278.1 41.6Q278.1 41.9 278.4 42.1Q278.6 42.3 279.1 42.5L279.1 42.5L280.1 42.7Q280.9 42.9 281.3 43.3Q281.7 43.7 281.7 44.3L281.7 44.3Q281.7 44.8 281.4 45.2Q281.1 45.7 280.5 45.9Q280.0 46.1 279.3 46.1ZM284.4 40.0L285.6 40.0L285.6 40.8L284.4 40.8L284.4 44.4Q284.4 44.8 284.6 45.0Q284.7 45.2 285.1 45.2L285.1 45.2Q285.2 45.2 285.3 45.2Q285.5 45.2 285.6 45.2L285.6 45.2L285.8 46.0Q285.6 46.0 285.5 46.0Q285.3 46.1 285.1 46.1L285.1 46.1Q284.3 46.1 283.9 45.7Q283.4 45.3 283.4 44.5L283.4 44.5L283.4 40.8L282.5 40.8L282.5 40.0L283.4 40.0L283.4 38.6L284.4 38.6L284.4 40.0Z M290.1 48.2L290.1 48.2L290.3 47.3L290.4 47.4Q290.7 47.4 291.0 47.4Q291.2 47.4 291.4 47.2Q291.6 47.0 291.7 46.5L291.7 46.5L291.9 46.0L289.6 40.0L290.7 40.0L292.0 43.6Q292.2 44.1 292.3 44.7L292.3 44.7Q292.4 44.9 292.4 45.1L292.4 45.1Q292.5 44.9 292.5 44.7L292.5 44.7Q292.7 44.1 292.9 43.6L292.9 43.6L294.2 40.0L295.2 40.0L292.6 46.9Q292.4 47.4 292.1 47.7Q291.9 48.0 291.6 48.1Q291.2 48.3 290.8 48.3L290.8 48.3Q290.5 48.3 290.3 48.3Q290.2 48.2 290.1 48.2ZM298.9 46.1L298.9 46.1Q298.0 46.1 297.4 45.7Q296.8 45.4 296.4 44.7Q296.1 44.0 296.1 43.0Q296.1 42.1 296.4 41.4Q296.7 40.7 297.4 40.3Q298.0 39.9 298.8 39.9L298.8 39.9Q299.3 39.9 299.7 40.1Q300.2 40.2 300.6 40.6Q300.9 40.9 301.2 41.5Q301.4 42.1 301.4 42.9L301.4 42.9L301.4 43.3L297.1 43.3Q297.1 43.9 297.3 44.3L297.3 44.3Q297.5 44.8 297.9 45.0Q298.4 45.3 298.9 45.3L298.9 45.3Q299.3 45.3 299.5 45.2Q299.8 45.1 300.0 44.9Q300.3 44.7 300.4 44.3L300.4 44.3L301.3 44.6Q301.2 45.1 300.8 45.4Q300.5 45.7 300.0 45.9Q299.5 46.1 298.9 46.1ZM297.1 42.5L297.1 42.5L300.4 42.5Q300.4 42.1 300.2 41.8L300.2 41.8Q300.1 41.3 299.7 41.0Q299.3 40.8 298.8 40.8Q298.2 40.8 297.9 41.0Q297.5 41.3 297.3 41.7L297.3 41.7Q297.1 42.1 297.1 42.5ZM304.8 46.1L304.8 46.1Q304.2 46.1 303.8 45.9Q303.3 45.7 303.0 45.3Q302.7 44.9 302.7 44.3L302.7 44.3Q302.7 43.8 302.9 43.5Q303.2 43.1 303.5 42.9Q303.8 42.8 304.2 42.7Q304.7 42.6 305.1 42.5L305.1 42.5Q305.6 42.5 306.0 42.4Q306.3 42.4 306.5 42.3Q306.6 42.2 306.6 42.0L306.6 42.0L306.6 41.9Q306.6 41.6 306.5 41.3Q306.3 41.0 306.1 40.9Q305.8 40.8 305.4 40.8L305.4 40.8Q304.9 40.8 304.6 40.9Q304.3 41.0 304.1 41.2Q303.9 41.4 303.8 41.6L303.8 41.6L302.9 41.3Q303.1 40.8 303.5 40.5Q303.9 40.2 304.4 40.0Q304.9 39.9 305.3 39.9L305.3 39.9Q305.6 39.9 306.0 40.0Q306.4 40.1 306.8 40.3Q307.1 40.5 307.4 40.9Q307.6 41.3 307.6 42.0L307.6 42.0L307.6 46L306.6 46L306.6 45.2L306.6 45.2Q306.5 45.4 306.2 45.6Q306.0 45.8 305.7 46.0Q305.3 46.1 304.8 46.1ZM305.0 45.3L305.0 45.3Q305.5 45.3 305.9 45.1Q306.2 44.9 306.4 44.5Q306.6 44.2 306.6 43.8L306.6 43.8L306.6 43.0Q306.6 43.1 306.4 43.1Q306.2 43.2 305.9 43.2Q305.7 43.3 305.4 43.3Q305.2 43.3 305.0 43.3L305.0 43.3Q304.7 43.4 304.4 43.5Q304.1 43.6 303.9 43.8Q303.7 44.0 303.7 44.3L303.7 44.3Q303.7 44.7 303.9 44.9Q304.0 45.1 304.3 45.2Q304.6 45.3 305.0 45.3ZM310.5 46L309.5 46L309.5 40.0L310.4 40.0L310.4 40.9L310.5 40.9Q310.7 40.5 311.1 40.2Q311.5 39.9 312.1 39.9L312.1 39.9Q312.2 39.9 312.3 39.9Q312.5 39.9 312.6 39.9L312.6 39.9L312.6 40.9Q312.5 40.9 312.3 40.9Q312.2 40.8 312.0 40.8L312.0 40.8Q311.5 40.8 311.2 41.0Q310.9 41.2 310.7 41.5Q310.5 41.8 310.5 42.2L310.5 42.2L310.5 46Z "/></g><mask id="satori_om-id-0-1"><rect x="1126" y="33" width="17" height="15" fill="#fff" mask="url(#satori_om-id)"/></mask><g mask="url(#satori_om-id)" clip-path="url(#satori_cp-id)"><path fill="#00f0ff" d="M1130.0 45.1L1130.0 45.1Q1128.9 45.1 1128.2 44.6Q1127.4 44.1 1127.0 43.1Q1126.6 42.1 1126.6 40.6L1126.6 40.6Q1126.6 39.2 1127.0 38.2Q1127.4 37.2 1128.2 36.7Q1128.9 36.2 1130.0 36.2L1130.0 36.2Q1131.0 36.2 1131.8 36.7Q1132.5 37.2 1132.9 38.2Q1133.3 39.2 1133.3 40.6L1133.3 40.6Q1133.3 42.1 1132.9 43.1Q1132.5 44.1 1131.8 44.6Q1131.0 45.1 1130.0 45.1ZM1130.0 43.8L1130.0 43.8Q1130.5 43.8 1130.9 43.4Q1131.3 43.1 1131.5 42.4Q1131.7 41.6 1131.7 40.6L1131.7 40.6Q1131.7 39.6 1131.5 38.9Q1131.3 38.2 1130.9 37.8Q1130.5 37.5 1130.0 37.5L1130.0 37.5Q1129.4 37.5 1129.0 37.8Q1128.6 38.2 1128.4 38.9Q1128.2 39.6 1128.2 40.6L1128.2 40.6Q1128.2 41.6 1128.4 42.4Q1128.6 43.1 1129.0 43.4Q1129.4 43.8 1130.0 43.8ZM1138.7 45.1L1138.7 45.1Q1137.8 45.1 1137.1 44.8Q1136.3 44.5 1135.9 43.9Q1135.5 43.4 1135.5 42.6L1135.5 42.6L1137.1 42.6Q1137.1 43.0 1137.3 43.3Q1137.5 43.5 1137.9 43.7Q1138.2 43.8 1138.7 43.8L1138.7 43.8Q1139.2 43.8 1139.5 43.6Q1139.9 43.5 1140.1 43.2Q1140.3 42.9 1140.3 42.5L1140.3 42.5Q1140.3 42.1 1140.1 41.8Q1139.9 41.5 1139.5 41.3Q1139.1 41.1 1138.5 41.1L1138.5 41.1L1137.8 41.1L1137.8 39.9L1138.5 39.9Q1139.0 39.9 1139.3 39.8Q1139.7 39.6 1139.9 39.3Q1140.1 39.0 1140.1 38.7L1140.1 38.7Q1140.1 38.3 1139.9 38.0Q1139.7 37.7 1139.4 37.6Q1139.1 37.4 1138.7 37.4L1138.7 37.4Q1138.3 37.4 1138.0 37.6Q1137.6 37.7 1137.4 38.0Q1137.2 38.2 1137.2 38.6L1137.2 38.6L1135.7 38.6Q1135.7 37.9 1136.1 37.3Q1136.5 36.8 1137.2 36.5Q1137.9 36.2 1138.7 36.2L1138.7 36.2Q1139.6 36.2 1140.2 36.5Q1140.9 36.8 1141.2 37.4Q1141.6 37.9 1141.6 38.6L1141.6 38.6Q1141.6 39.3 1141.2 39.8Q1140.7 40.3 1140.0 40.5L1140.0 40.5L1140.0 40.5Q1140.6 40.6 1141.0 40.9Q1141.5 41.2 1141.7 41.6Q1141.9 42.0 1141.9 42.6L1141.9 42.6Q1141.9 43.3 1141.5 43.9Q1141.1 44.5 1140.4 44.8Q1139.6 45.1 1138.7 45.1Z "/></g><mask id="satori_om-id-1"><rect x="57" y="94" width="1086" height="140" fill="#fff" mask="url(#satori_om-id)"/></mask><mask id="satori_om-id-2"><rect x="57" y="279" width="1086" height="12" fill="#fff" mask="url(#satori_om-id)"/></mask><mask id="satori_om-id-2-0"><rect x="57" y="279" width="46" height="12" fill="#fff" mask="url(#satori_om-id)"/></mask><g mask="url(#satori_om-id)" clip-path="url(#satori_cp-id)"><path fill="#50627a" d="M59.9 289.1L59.9 289.1Q59.3 289.1 58.8 288.8Q58.3 288.6 58.0 288.2Q57.6 287.7 57.6 287.2L57.6 287.2L58.5 287.2Q58.6 287.5 58.7 287.7Q58.9 288.0 59.2 288.1Q59.5 288.3 59.9 288.3L59.9 288.3Q60.3 288.3 60.7 288.1Q61.0 287.9 61.2 287.5Q61.4 287.1 61.4 286.7L61.4 286.7Q61.4 286.2 61.2 285.9Q61.0 285.5 60.7 285.3Q60.3 285.1 59.9 285.1L59.9 285.1Q59.5 285.1 59.2 285.2Q58.8 285.3 58.6 285.4L58.6 285.4L57.7 285.3L58.2 281.7L62.0 281.7L62.0 282.5L58.9 282.5L58.7 284.7L58.7 284.7Q59.0 284.5 59.3 284.4Q59.6 284.2 60.0 284.2L60.0 284.2Q60.5 284.2 60.9 284.4Q61.4 284.6 61.7 284.9Q62.0 285.3 62.2 285.7Q62.3 286.1 62.3 286.7L62.3 286.7Q62.3 287.4 62.0 287.9Q61.7 288.5 61.2 288.8Q60.6 289.1 59.9 289.1ZM68.3 289L63.7 289L63.7 288.3L66.1 285.7Q66.5 285.3 66.8 284.9Q67.0 284.6 67.2 284.3Q67.3 284.0 67.3 283.7L67.3 283.7Q67.3 283.3 67.1 283.0Q67.0 282.7 66.6 282.6Q66.3 282.4 66.0 282.4L66.0 282.4Q65.5 282.4 65.2 282.6Q64.9 282.8 64.8 283.1Q64.6 283.4 64.6 283.8L64.6 283.8L63.7 283.8Q63.7 283.1 64.0 282.7Q64.3 282.2 64.8 281.9Q65.3 281.6 66.0 281.6L66.0 281.6Q66.6 281.6 67.1 281.9Q67.6 282.2 67.9 282.6Q68.2 283.1 68.2 283.7L68.2 283.7Q68.2 284.1 68.1 284.4Q67.9 284.8 67.6 285.3Q67.2 285.7 66.6 286.4L66.6 286.4L65.0 288.1L65.0 288.2L68.3 288.2L68.3 289Z M74.7 289L73.8 289L72.2 283.5L73.1 283.5L73.8 285.9Q73.9 286.4 74.1 287.0L74.1 287.0Q74.2 287.5 74.3 288.1L74.3 288.1Q74.4 287.5 74.5 287.1L74.5 287.1Q74.7 286.4 74.8 285.9L74.8 285.9L75.5 283.5L76.4 283.5L77.1 285.9Q77.2 286.4 77.3 287.0L77.3 287.0Q77.5 287.5 77.6 288.0L77.6 288.0Q77.7 287.5 77.8 287.1L77.8 287.1Q77.9 286.4 78.1 285.9L78.1 285.9L78.8 283.5L79.7 283.5L78.0 289L77.2 289L76.4 286.5Q76.3 286.2 76.2 285.8Q76.1 285.4 76.0 285.0L76.0 285.0Q76.0 284.8 75.9 284.5L75.9 284.5Q75.9 284.7 75.8 285.0L75.8 285.0Q75.7 285.4 75.6 285.8Q75.5 286.2 75.4 286.5L75.4 286.5L74.7 289ZM82.9 289.1L82.9 289.1Q82.1 289.1 81.5 288.8Q81.0 288.4 80.7 287.8Q80.4 287.2 80.4 286.3Q80.4 285.5 80.7 284.8Q81.0 284.2 81.5 283.8Q82.1 283.5 82.8 283.5L82.8 283.5Q83.2 283.5 83.7 283.6Q84.1 283.8 84.4 284.1Q84.8 284.4 85.0 284.9Q85.2 285.4 85.2 286.2L85.2 286.2L85.2 286.6L81.2 286.6Q81.3 287.1 81.5 287.5L81.5 287.5Q81.7 287.9 82.0 288.1Q82.4 288.3 82.9 288.3L82.9 288.3Q83.2 288.3 83.5 288.2Q83.8 288.2 84.0 288.0Q84.1 287.8 84.3 287.5L84.3 287.5L85.1 287.7Q85.0 288.1 84.7 288.5Q84.4 288.8 83.9 288.9Q83.5 289.1 82.9 289.1ZM81.2 285.8L81.2 285.8L84.3 285.8Q84.3 285.5 84.1 285.1L84.1 285.1Q84.0 284.7 83.6 284.5Q83.3 284.3 82.8 284.3Q82.3 284.3 82.0 284.5Q81.6 284.7 81.4 285.1L81.4 285.1Q81.3 285.5 81.2 285.8ZM88.7 289.1L88.7 289.1Q88.0 289.1 87.4 288.8Q86.8 288.4 86.5 287.8Q86.2 287.2 86.2 286.3Q86.2 285.5 86.5 284.8Q86.8 284.2 87.3 283.8Q87.9 283.5 88.6 283.5L88.6 283.5Q89.1 283.5 89.5 283.6Q89.9 283.8 90.3 284.1Q90.6 284.4 90.8 284.9Q91.0 285.4 91.0 286.2L91.0 286.2L91.0 286.6L87.1 286.6Q87.1 287.1 87.3 287.5L87.3 287.5Q87.5 287.9 87.9 288.1Q88.3 288.3 88.7 288.3L88.7 288.3Q89.1 288.3 89.3 288.2Q89.6 288.2 89.8 288.0Q90.0 287.8 90.1 287.5L90.1 287.5L90.9 287.7Q90.8 288.1 90.5 288.5Q90.2 288.8 89.8 288.9Q89.3 289.1 88.7 289.1ZM87.1 285.8L87.1 285.8L90.1 285.8Q90.1 285.5 90.0 285.1L90.0 285.1Q89.8 284.7 89.5 284.5Q89.1 284.3 88.6 284.3Q88.1 284.3 87.8 284.5Q87.4 284.7 87.3 285.1L87.3 285.1Q87.1 285.5 87.1 285.8ZM93.2 289L92.3 289L92.3 281.7L93.2 281.7L93.2 285.9L93.3 285.9L95.6 283.5L96.7 283.5L94.4 285.9L96.9 289L95.7 289L93.7 286.4L93.2 287.0L93.2 289ZM99.6 289.1L99.6 289.1Q99.1 289.1 98.6 289.0Q98.2 288.8 97.9 288.5Q97.6 288.1 97.5 287.7L97.5 287.7L98.4 287.5Q98.5 287.9 98.8 288.1Q99.1 288.3 99.6 288.3L99.6 288.3Q100.2 288.3 100.5 288.1Q100.9 287.9 100.9 287.5L100.9 287.5Q100.9 287.2 100.7 287.0Q100.5 286.9 100.1 286.8L100.1 286.8L99.2 286.6Q98.4 286.4 98.0 286.0Q97.7 285.6 97.7 285.1L97.7 285.1Q97.7 284.6 98.0 284.2Q98.2 283.9 98.7 283.7Q99.1 283.5 99.7 283.5L99.7 283.5Q100.3 283.5 100.7 283.6Q101.1 283.8 101.3 284.1Q101.6 284.4 101.7 284.8L101.7 284.8L100.9 285.0Q100.8 284.7 100.5 284.5Q100.2 284.2 99.7 284.2L99.7 284.2Q99.2 284.2 98.9 284.4Q98.6 284.7 98.6 285.0L98.6 285.0Q98.6 285.3 98.8 285.5Q99.0 285.7 99.5 285.8L99.5 285.8L100.3 286.0Q101.1 286.2 101.4 286.5Q101.8 286.9 101.8 287.5L101.8 287.5Q101.8 287.9 101.5 288.3Q101.2 288.7 100.7 288.9Q100.3 289.1 99.6 289.1Z "/></g><mask id="satori_om-id-2-1"><rect x="1053" y="279" width="90" height="12" fill="#fff" mask="url(#satori_om-id)"/></mask><mask id="satori_om-id-2-1-0"><rect x="1053" y="279" width="34" height="12" fill="#fff" mask="url(#satori_om-id)"/></mask><defs><clipPath id="satori_bc-id-2-1-0-0" clip-path="url(#satori_cp-id)"><path x="1053" y="281" width="9" height="9" d="M1055,281 h5 a2,2 0 0 1 2,2 v5 a2,2 0 0 1 -2,2 h-5 a2,2 0 0 1 -2,-2 v-5 a2,2 0 0 1 2,-2"/></clipPath></defs><mask id="satori_om-id-2-1-0-0"><rect x="1054" y="282" width="7" height="7" fill="#fff" mask="url(#satori_om-id)"/><path width="9" height="9" fill="none" stroke="#000" stroke-width="2" d="M1053.586,281.586 A2,2 0 0 1 1055,281 h5 a2,2 0 0 1 2,2 v5 a2,2 0 0 1 -2,2 h-5 a2,2 0 0 1 -2,-2 v-5 A2,2 0 0 1 1053.586,281.586"/></mask><path x="1053" y="281" width="9" height="9" fill="rgba(255,255,255,0.04)" d="M1055,281 h5 a2,2 0 0 1 2,2 v5 a2,2 0 0 1 -2,2 h-5 a2,2 0 0 1 -2,-2 v-5 a2,2 0 0 1 2,-2" clip-path="url(#satori_cp-id)" mask="url(#satori_om-id)"/><path width="9" height="9" clip-path="url(#satori_bc-id-2-1-0-0)" fill="none" stroke="rgba(255,255,255,0.06)" stroke-width="2" d="M1053.586,281.586 A2,2 0 0 1 1055,281 h5 a2,2 0 0 1 2,2 v5 a2,2 0 0 1 -2,2 h-5 a2,2 0 0 1 -2,-2 v-5 A2,2 0 0 1 1053.586,281.586"/><mask id="satori_om-id-2-1-0-1"><rect x="1068" y="279" width="19" height="12" fill="#fff" mask="url(#satori_om-id)"/></mask><g mask="url(#satori_om-id)" clip-path="url(#satori_cp-id)"><path fill="#50627a" d="M1068.8 281.7L1069.7 281.7L1069.7 289L1068.8 289L1068.8 281.7ZM1073.5 289.1L1073.5 289.1Q1072.7 289.1 1072.1 288.8Q1071.5 288.4 1071.2 287.8Q1070.9 287.2 1070.9 286.3Q1070.9 285.5 1071.2 284.8Q1071.5 284.2 1072.1 283.8Q1072.6 283.5 1073.4 283.5L1073.4 283.5Q1073.8 283.5 1074.2 283.6Q1074.7 283.8 1075.0 284.1Q1075.4 284.4 1075.6 284.9Q1075.8 285.4 1075.8 286.2L1075.8 286.2L1075.8 286.6L1071.8 286.6Q1071.8 287.1 1072.0 287.5L1072.0 287.5Q1072.2 287.9 1072.6 288.1Q1073.0 288.3 1073.5 288.3L1073.5 288.3Q1073.8 288.3 1074.1 288.2Q1074.3 288.2 1074.5 288.0Q1074.7 287.8 1074.8 287.5L1074.8 287.5L1075.7 287.7Q1075.5 288.1 1075.2 288.5Q1074.9 288.8 1074.5 288.9Q1074.0 289.1 1073.5 289.1ZM1071.8 285.8L1071.8 285.8L1074.9 285.8Q1074.8 285.5 1074.7 285.1L1074.7 285.1Q1074.5 284.7 1074.2 284.5Q1073.9 284.3 1073.4 284.3Q1072.9 284.3 1072.5 284.5Q1072.2 284.7 1072.0 285.1L1072.0 285.1Q1071.8 285.5 1071.8 285.8ZM1078.9 289.1L1078.9 289.1Q1078.3 289.1 1077.9 289.0Q1077.4 288.8 1077.2 288.5Q1076.9 288.1 1076.8 287.7L1076.8 287.7L1077.6 287.5Q1077.7 287.9 1078.1 288.1Q1078.4 288.3 1078.9 288.3L1078.9 288.3Q1079.4 288.3 1079.8 288.1Q1080.1 287.9 1080.1 287.5L1080.1 287.5Q1080.1 287.2 1079.9 287.0Q1079.7 286.9 1079.3 286.8L1079.3 286.8L1078.4 286.6Q1077.7 286.4 1077.3 286.0Q1076.9 285.6 1076.9 285.1L1076.9 285.1Q1076.9 284.6 1077.2 284.2Q1077.5 283.9 1077.9 283.7Q1078.4 283.5 1079.0 283.5L1079.0 283.5Q1079.5 283.5 1079.9 283.6Q1080.3 283.8 1080.6 284.1Q1080.8 284.4 1080.9 284.8L1080.9 284.8L1080.1 285.0Q1080.0 284.7 1079.8 284.5Q1079.5 284.2 1079.0 284.2L1079.0 284.2Q1078.5 284.2 1078.2 284.4Q1077.8 284.7 1077.8 285.0L1077.8 285.0Q1077.8 285.3 1078.1 285.5Q1078.3 285.7 1078.8 285.8L1078.8 285.8L1079.6 286.0Q1080.3 286.2 1080.7 286.5Q1081.0 286.9 1081.0 287.5L1081.0 287.5Q1081.0 287.9 1080.8 288.3Q1080.5 288.7 1080.0 288.9Q1079.5 289.1 1078.9 289.1ZM1084.2 289.1L1084.2 289.1Q1083.6 289.1 1083.2 289.0Q1082.7 288.8 1082.4 288.5Q1082.2 288.1 1082.1 287.7L1082.1 287.7L1082.9 287.5Q1083.0 287.9 1083.3 288.1Q1083.7 288.3 1084.1 288.3L1084.1 288.3Q1084.7 288.3 1085.1 288.1Q1085.4 287.9 1085.4 287.5L1085.4 287.5Q1085.4 287.2 1085.2 287.0Q1085.0 286.9 1084.6 286.8L1084.6 286.8L1083.7 286.6Q1082.9 286.4 1082.6 286.0Q1082.2 285.6 1082.2 285.1L1082.2 285.1Q1082.2 284.6 1082.5 284.2Q1082.8 283.9 1083.2 283.7Q1083.7 283.5 1084.2 283.5L1084.2 283.5Q1084.8 283.5 1085.2 283.6Q1085.6 283.8 1085.8 284.1Q1086.1 284.4 1086.2 284.8L1086.2 284.8L1085.4 285.0Q1085.3 284.7 1085.0 284.5Q1084.8 284.2 1084.3 284.2L1084.3 284.2Q1083.8 284.2 1083.4 284.4Q1083.1 284.7 1083.1 285.0L1083.1 285.0Q1083.1 285.3 1083.3 285.5Q1083.6 285.7 1084.0 285.8L1084.0 285.8L1084.9 286.0Q1085.6 286.2 1086.0 286.5Q1086.3 286.9 1086.3 287.5L1086.3 287.5Q1086.3 287.9 1086.0 288.3Q1085.8 288.7 1085.3 288.9Q1084.8 289.1 1084.2 289.1Z "/></g><mask id="satori_om-id-2-1-1"><rect x="1103" y="279" width="40" height="12" fill="#fff" mask="url(#satori_om-id)"/></mask><mask id="satori_om-id-2-1-1-0"><rect x="1103" y="281" width="9" height="9" fill="#fff" mask="url(#satori_om-id)"/></mask><path x="1103" y="281" width="9" height="9" fill="#00f0ff" d="M1105,281 h5 a2,2 0 0 1 2,2 v5 a2,2 0 0 1 -2,2 h-5 a2,2 0 0 1 -2,-2 v-5 a2,2 0 0 1 2,-2" clip-path="url(#satori_cp-id)" mask="url(#satori_om-id)"/><mask id="satori_om-id-2-1-1-1"><rect x="1118" y="279" width="25" height="12" fill="#fff" mask="url(#satori_om-id)"/></mask><g mask="url(#satori_om-id)" clip-path="url(#satori_cp-id)"><path fill="#50627a" d="M1119.7 289L1118.8 289L1118.8 283.5L1119.6 283.5L1119.6 284.5Q1119.7 284.2 1119.9 284.0L1119.9 284.0Q1120.2 283.7 1120.5 283.6Q1120.8 283.4 1121.2 283.4L1121.2 283.4Q1121.8 283.4 1122.1 283.8L1122.1 283.8Q1122.4 284.1 1122.6 284.6L1122.6 284.6Q1122.7 284.3 1122.8 284.1L1122.8 284.1Q1123.1 283.8 1123.5 283.6Q1123.8 283.4 1124.3 283.4L1124.3 283.4Q1124.7 283.4 1125.1 283.6Q1125.5 283.9 1125.8 284.3Q1126.0 284.7 1126.0 285.3L1126.0 285.3L1126.0 289L1125.1 289L1125.1 285.3Q1125.1 284.8 1124.8 284.5Q1124.4 284.2 1124.0 284.2L1124.0 284.2Q1123.6 284.2 1123.4 284.4Q1123.1 284.6 1123.0 284.8Q1122.8 285.1 1122.8 285.4L1122.8 285.4L1122.8 289L1121.9 289L1121.9 285.3Q1121.9 284.8 1121.6 284.5Q1121.3 284.2 1120.9 284.2L1120.9 284.2Q1120.6 284.2 1120.3 284.4Q1120.0 284.5 1119.8 284.8Q1119.7 285.1 1119.7 285.6L1119.7 285.6L1119.7 289ZM1129.8 289.1L1129.8 289.1Q1129.0 289.1 1128.5 288.8Q1127.9 288.4 1127.6 287.8Q1127.3 287.1 1127.3 286.3L1127.3 286.3Q1127.3 285.5 1127.6 284.8Q1127.9 284.2 1128.5 283.8Q1129.0 283.5 1129.8 283.5L1129.8 283.5Q1130.5 283.5 1131.1 283.8Q1131.6 284.2 1131.9 284.8Q1132.2 285.5 1132.2 286.3L1132.2 286.3Q1132.2 287.1 1131.9 287.8Q1131.6 288.4 1131.1 288.8Q1130.5 289.1 1129.8 289.1ZM1129.8 288.3L1129.8 288.3Q1130.3 288.3 1130.7 288.0Q1131.0 287.8 1131.2 287.3Q1131.4 286.8 1131.4 286.3L1131.4 286.3Q1131.4 285.8 1131.2 285.3Q1131.0 284.8 1130.7 284.5Q1130.3 284.3 1129.8 284.3L1129.8 284.3Q1129.2 284.3 1128.9 284.5Q1128.5 284.8 1128.3 285.3Q1128.2 285.8 1128.2 286.3L1128.2 286.3Q1128.2 286.8 1128.3 287.3Q1128.5 287.8 1128.9 288.0Q1129.2 288.3 1129.8 288.3ZM1134.4 289L1133.5 289L1133.5 283.5L1134.4 283.5L1134.4 284.4L1134.4 284.4Q1134.6 284.0 1135.0 283.7Q1135.4 283.5 1135.9 283.5L1135.9 283.5Q1135.9 283.5 1136.1 283.5Q1136.2 283.5 1136.3 283.5L1136.3 283.5L1136.3 284.4Q1136.3 284.4 1136.1 284.3Q1135.9 284.3 1135.8 284.3L1135.8 284.3Q1135.4 284.3 1135.1 284.5Q1134.8 284.6 1134.6 284.9Q1134.4 285.2 1134.4 285.6L1134.4 285.6L1134.4 289ZM1139.4 289.1L1139.4 289.1Q1138.6 289.1 1138.1 288.8Q1137.5 288.4 1137.2 287.8Q1136.9 287.2 1136.9 286.3Q1136.9 285.5 1137.2 284.8Q1137.5 284.2 1138.0 283.8Q1138.6 283.5 1139.3 283.5L1139.3 283.5Q1139.8 283.5 1140.2 283.6Q1140.6 283.8 1140.9 284.1Q1141.3 284.4 1141.5 284.9Q1141.7 285.4 1141.7 286.2L1141.7 286.2L1141.7 286.6L1137.8 286.6Q1137.8 287.1 1138.0 287.5L1138.0 287.5Q1138.2 287.9 1138.5 288.1Q1138.9 288.3 1139.4 288.3L1139.4 288.3Q1139.7 288.3 1140.0 288.2Q1140.3 288.2 1140.5 288.0Q1140.7 287.8 1140.8 287.5L1140.8 287.5L1141.6 287.7Q1141.5 288.1 1141.2 288.5Q1140.9 288.8 1140.4 288.9Q1140.0 289.1 1139.4 289.1ZM1137.8 285.8L1137.8 285.8L1140.8 285.8Q1140.8 285.5 1140.6 285.1L1140.6 285.1Q1140.5 284.7 1140.1 284.5Q1139.8 284.3 1139.3 284.3Q1138.8 284.3 1138.5 284.5Q1138.1 284.7 1137.9 285.1L1137.9 285.1Q1137.8 285.5 1137.8 285.8Z "/></g></svg>